G75*
%MOIN*%
%OFA0B0*%
%FSLAX25Y25*%
%IPPOS*%
%LPD*%
%AMOC8*
5,1,8,0,0,1.08239X$1,22.5*
%
%ADD10C,0.00000*%
D10*
X0021800Y0013995D02*
X0021800Y0266635D01*
X0021803Y0266905D01*
X0021813Y0267175D01*
X0021829Y0267445D01*
X0021852Y0267714D01*
X0021882Y0267983D01*
X0021917Y0268250D01*
X0021960Y0268517D01*
X0022008Y0268783D01*
X0022063Y0269047D01*
X0022125Y0269311D01*
X0022193Y0269572D01*
X0022267Y0269832D01*
X0022347Y0270090D01*
X0022434Y0270346D01*
X0022527Y0270599D01*
X0022625Y0270851D01*
X0022730Y0271100D01*
X0022841Y0271346D01*
X0022958Y0271590D01*
X0023081Y0271831D01*
X0023209Y0272068D01*
X0023343Y0272303D01*
X0023483Y0272534D01*
X0023628Y0272762D01*
X0023779Y0272986D01*
X0023935Y0273206D01*
X0024097Y0273423D01*
X0024263Y0273636D01*
X0024435Y0273844D01*
X0024612Y0274049D01*
X0024793Y0274249D01*
X0024980Y0274444D01*
X0025171Y0274635D01*
X0025366Y0274822D01*
X0025566Y0275003D01*
X0025771Y0275180D01*
X0025979Y0275352D01*
X0026192Y0275518D01*
X0026409Y0275680D01*
X0026629Y0275836D01*
X0026853Y0275987D01*
X0027081Y0276132D01*
X0027312Y0276272D01*
X0027547Y0276406D01*
X0027784Y0276534D01*
X0028025Y0276657D01*
X0028269Y0276774D01*
X0028515Y0276885D01*
X0028764Y0276990D01*
X0029016Y0277088D01*
X0029269Y0277181D01*
X0029525Y0277268D01*
X0029783Y0277348D01*
X0030043Y0277422D01*
X0030304Y0277490D01*
X0030568Y0277552D01*
X0030832Y0277607D01*
X0031098Y0277655D01*
X0031365Y0277698D01*
X0031632Y0277733D01*
X0031901Y0277763D01*
X0032170Y0277786D01*
X0032440Y0277802D01*
X0032710Y0277812D01*
X0032980Y0277815D01*
X0270620Y0277815D01*
X0270890Y0277812D01*
X0271160Y0277802D01*
X0271430Y0277786D01*
X0271699Y0277763D01*
X0271968Y0277733D01*
X0272235Y0277698D01*
X0272502Y0277655D01*
X0272768Y0277607D01*
X0273032Y0277552D01*
X0273296Y0277490D01*
X0273557Y0277422D01*
X0273817Y0277348D01*
X0274075Y0277268D01*
X0274331Y0277181D01*
X0274584Y0277088D01*
X0274836Y0276990D01*
X0275085Y0276885D01*
X0275331Y0276774D01*
X0275575Y0276657D01*
X0275816Y0276534D01*
X0276053Y0276406D01*
X0276288Y0276272D01*
X0276519Y0276132D01*
X0276747Y0275987D01*
X0276971Y0275836D01*
X0277191Y0275680D01*
X0277408Y0275518D01*
X0277621Y0275352D01*
X0277829Y0275180D01*
X0278034Y0275003D01*
X0278234Y0274822D01*
X0278429Y0274635D01*
X0278620Y0274444D01*
X0278807Y0274249D01*
X0278988Y0274049D01*
X0279165Y0273844D01*
X0279337Y0273636D01*
X0279503Y0273423D01*
X0279665Y0273206D01*
X0279821Y0272986D01*
X0279972Y0272762D01*
X0280117Y0272534D01*
X0280257Y0272303D01*
X0280391Y0272068D01*
X0280519Y0271831D01*
X0280642Y0271590D01*
X0280759Y0271346D01*
X0280870Y0271100D01*
X0280975Y0270851D01*
X0281073Y0270599D01*
X0281166Y0270346D01*
X0281253Y0270090D01*
X0281333Y0269832D01*
X0281407Y0269572D01*
X0281475Y0269311D01*
X0281537Y0269047D01*
X0281592Y0268783D01*
X0281640Y0268517D01*
X0281683Y0268250D01*
X0281718Y0267983D01*
X0281748Y0267714D01*
X0281771Y0267445D01*
X0281787Y0267175D01*
X0281797Y0266905D01*
X0281800Y0266635D01*
X0281800Y0013995D01*
X0281797Y0013725D01*
X0281787Y0013455D01*
X0281771Y0013185D01*
X0281748Y0012916D01*
X0281718Y0012647D01*
X0281683Y0012380D01*
X0281640Y0012113D01*
X0281592Y0011847D01*
X0281537Y0011583D01*
X0281475Y0011319D01*
X0281407Y0011058D01*
X0281333Y0010798D01*
X0281253Y0010540D01*
X0281166Y0010284D01*
X0281073Y0010031D01*
X0280975Y0009779D01*
X0280870Y0009530D01*
X0280759Y0009284D01*
X0280642Y0009040D01*
X0280519Y0008799D01*
X0280391Y0008562D01*
X0280257Y0008327D01*
X0280117Y0008096D01*
X0279972Y0007868D01*
X0279821Y0007644D01*
X0279665Y0007424D01*
X0279503Y0007207D01*
X0279337Y0006994D01*
X0279165Y0006786D01*
X0278988Y0006581D01*
X0278807Y0006381D01*
X0278620Y0006186D01*
X0278429Y0005995D01*
X0278234Y0005808D01*
X0278034Y0005627D01*
X0277829Y0005450D01*
X0277621Y0005278D01*
X0277408Y0005112D01*
X0277191Y0004950D01*
X0276971Y0004794D01*
X0276747Y0004643D01*
X0276519Y0004498D01*
X0276288Y0004358D01*
X0276053Y0004224D01*
X0275816Y0004096D01*
X0275575Y0003973D01*
X0275331Y0003856D01*
X0275085Y0003745D01*
X0274836Y0003640D01*
X0274584Y0003542D01*
X0274331Y0003449D01*
X0274075Y0003362D01*
X0273817Y0003282D01*
X0273557Y0003208D01*
X0273296Y0003140D01*
X0273032Y0003078D01*
X0272768Y0003023D01*
X0272502Y0002975D01*
X0272235Y0002932D01*
X0271968Y0002897D01*
X0271699Y0002867D01*
X0271430Y0002844D01*
X0271160Y0002828D01*
X0270890Y0002818D01*
X0270620Y0002815D01*
X0032980Y0002815D01*
X0032710Y0002818D01*
X0032440Y0002828D01*
X0032170Y0002844D01*
X0031901Y0002867D01*
X0031632Y0002897D01*
X0031365Y0002932D01*
X0031098Y0002975D01*
X0030832Y0003023D01*
X0030568Y0003078D01*
X0030304Y0003140D01*
X0030043Y0003208D01*
X0029783Y0003282D01*
X0029525Y0003362D01*
X0029269Y0003449D01*
X0029016Y0003542D01*
X0028764Y0003640D01*
X0028515Y0003745D01*
X0028269Y0003856D01*
X0028025Y0003973D01*
X0027784Y0004096D01*
X0027547Y0004224D01*
X0027312Y0004358D01*
X0027081Y0004498D01*
X0026853Y0004643D01*
X0026629Y0004794D01*
X0026409Y0004950D01*
X0026192Y0005112D01*
X0025979Y0005278D01*
X0025771Y0005450D01*
X0025566Y0005627D01*
X0025366Y0005808D01*
X0025171Y0005995D01*
X0024980Y0006186D01*
X0024793Y0006381D01*
X0024612Y0006581D01*
X0024435Y0006786D01*
X0024263Y0006994D01*
X0024097Y0007207D01*
X0023935Y0007424D01*
X0023779Y0007644D01*
X0023628Y0007868D01*
X0023483Y0008096D01*
X0023343Y0008327D01*
X0023209Y0008562D01*
X0023081Y0008799D01*
X0022958Y0009040D01*
X0022841Y0009284D01*
X0022730Y0009530D01*
X0022625Y0009779D01*
X0022527Y0010031D01*
X0022434Y0010284D01*
X0022347Y0010540D01*
X0022267Y0010798D01*
X0022193Y0011058D01*
X0022125Y0011319D01*
X0022063Y0011583D01*
X0022008Y0011847D01*
X0021960Y0012113D01*
X0021917Y0012380D01*
X0021882Y0012647D01*
X0021852Y0012916D01*
X0021829Y0013185D01*
X0021813Y0013455D01*
X0021803Y0013725D01*
X0021800Y0013995D01*
X0241564Y0037500D02*
X0248650Y0037500D01*
X0248732Y0037502D01*
X0248813Y0037508D01*
X0248895Y0037517D01*
X0248976Y0037530D01*
X0249056Y0037547D01*
X0249135Y0037568D01*
X0249213Y0037592D01*
X0249290Y0037620D01*
X0249366Y0037651D01*
X0249440Y0037686D01*
X0249512Y0037724D01*
X0249583Y0037765D01*
X0249651Y0037810D01*
X0249718Y0037858D01*
X0249782Y0037909D01*
X0249844Y0037962D01*
X0249903Y0038019D01*
X0249960Y0038078D01*
X0250013Y0038140D01*
X0250064Y0038204D01*
X0250112Y0038271D01*
X0250157Y0038339D01*
X0250198Y0038410D01*
X0250236Y0038482D01*
X0250271Y0038556D01*
X0250302Y0038632D01*
X0250330Y0038709D01*
X0250354Y0038787D01*
X0250375Y0038866D01*
X0250392Y0038946D01*
X0250405Y0039027D01*
X0250414Y0039109D01*
X0250420Y0039190D01*
X0250422Y0039272D01*
X0250420Y0039354D01*
X0250414Y0039435D01*
X0250405Y0039517D01*
X0250392Y0039598D01*
X0250375Y0039678D01*
X0250354Y0039757D01*
X0250330Y0039835D01*
X0250302Y0039912D01*
X0250271Y0039988D01*
X0250236Y0040062D01*
X0250198Y0040134D01*
X0250157Y0040205D01*
X0250112Y0040273D01*
X0250064Y0040340D01*
X0250013Y0040404D01*
X0249960Y0040466D01*
X0249903Y0040525D01*
X0249844Y0040582D01*
X0249782Y0040635D01*
X0249718Y0040686D01*
X0249651Y0040734D01*
X0249583Y0040779D01*
X0249512Y0040820D01*
X0249440Y0040858D01*
X0249366Y0040893D01*
X0249290Y0040924D01*
X0249213Y0040952D01*
X0249135Y0040976D01*
X0249056Y0040997D01*
X0248976Y0041014D01*
X0248895Y0041027D01*
X0248813Y0041036D01*
X0248732Y0041042D01*
X0248650Y0041044D01*
X0248650Y0041043D02*
X0241564Y0041043D01*
X0241564Y0041044D02*
X0241482Y0041042D01*
X0241401Y0041036D01*
X0241319Y0041027D01*
X0241238Y0041014D01*
X0241158Y0040997D01*
X0241079Y0040976D01*
X0241001Y0040952D01*
X0240924Y0040924D01*
X0240848Y0040893D01*
X0240774Y0040858D01*
X0240702Y0040820D01*
X0240631Y0040779D01*
X0240563Y0040734D01*
X0240496Y0040686D01*
X0240432Y0040635D01*
X0240370Y0040582D01*
X0240311Y0040525D01*
X0240254Y0040466D01*
X0240201Y0040404D01*
X0240150Y0040340D01*
X0240102Y0040273D01*
X0240057Y0040205D01*
X0240016Y0040134D01*
X0239978Y0040062D01*
X0239943Y0039988D01*
X0239912Y0039912D01*
X0239884Y0039835D01*
X0239860Y0039757D01*
X0239839Y0039678D01*
X0239822Y0039598D01*
X0239809Y0039517D01*
X0239800Y0039435D01*
X0239794Y0039354D01*
X0239792Y0039272D01*
X0239794Y0039190D01*
X0239800Y0039109D01*
X0239809Y0039027D01*
X0239822Y0038946D01*
X0239839Y0038866D01*
X0239860Y0038787D01*
X0239884Y0038709D01*
X0239912Y0038632D01*
X0239943Y0038556D01*
X0239978Y0038482D01*
X0240016Y0038410D01*
X0240057Y0038339D01*
X0240102Y0038271D01*
X0240150Y0038204D01*
X0240201Y0038140D01*
X0240254Y0038078D01*
X0240311Y0038019D01*
X0240370Y0037962D01*
X0240432Y0037909D01*
X0240496Y0037858D01*
X0240563Y0037810D01*
X0240631Y0037765D01*
X0240702Y0037724D01*
X0240774Y0037686D01*
X0240848Y0037651D01*
X0240924Y0037620D01*
X0241001Y0037592D01*
X0241079Y0037568D01*
X0241158Y0037547D01*
X0241238Y0037530D01*
X0241319Y0037517D01*
X0241401Y0037508D01*
X0241482Y0037502D01*
X0241564Y0037500D01*
X0266209Y0037500D02*
X0270934Y0037500D01*
X0271016Y0037502D01*
X0271097Y0037508D01*
X0271179Y0037517D01*
X0271260Y0037530D01*
X0271340Y0037547D01*
X0271419Y0037568D01*
X0271497Y0037592D01*
X0271574Y0037620D01*
X0271650Y0037651D01*
X0271724Y0037686D01*
X0271796Y0037724D01*
X0271867Y0037765D01*
X0271935Y0037810D01*
X0272002Y0037858D01*
X0272066Y0037909D01*
X0272128Y0037962D01*
X0272187Y0038019D01*
X0272244Y0038078D01*
X0272297Y0038140D01*
X0272348Y0038204D01*
X0272396Y0038271D01*
X0272441Y0038339D01*
X0272482Y0038410D01*
X0272520Y0038482D01*
X0272555Y0038556D01*
X0272586Y0038632D01*
X0272614Y0038709D01*
X0272638Y0038787D01*
X0272659Y0038866D01*
X0272676Y0038946D01*
X0272689Y0039027D01*
X0272698Y0039109D01*
X0272704Y0039190D01*
X0272706Y0039272D01*
X0272704Y0039354D01*
X0272698Y0039435D01*
X0272689Y0039517D01*
X0272676Y0039598D01*
X0272659Y0039678D01*
X0272638Y0039757D01*
X0272614Y0039835D01*
X0272586Y0039912D01*
X0272555Y0039988D01*
X0272520Y0040062D01*
X0272482Y0040134D01*
X0272441Y0040205D01*
X0272396Y0040273D01*
X0272348Y0040340D01*
X0272297Y0040404D01*
X0272244Y0040466D01*
X0272187Y0040525D01*
X0272128Y0040582D01*
X0272066Y0040635D01*
X0272002Y0040686D01*
X0271935Y0040734D01*
X0271867Y0040779D01*
X0271796Y0040820D01*
X0271724Y0040858D01*
X0271650Y0040893D01*
X0271574Y0040924D01*
X0271497Y0040952D01*
X0271419Y0040976D01*
X0271340Y0040997D01*
X0271260Y0041014D01*
X0271179Y0041027D01*
X0271097Y0041036D01*
X0271016Y0041042D01*
X0270934Y0041044D01*
X0270934Y0041043D02*
X0266209Y0041043D01*
X0266209Y0041044D02*
X0266127Y0041042D01*
X0266046Y0041036D01*
X0265964Y0041027D01*
X0265883Y0041014D01*
X0265803Y0040997D01*
X0265724Y0040976D01*
X0265646Y0040952D01*
X0265569Y0040924D01*
X0265493Y0040893D01*
X0265419Y0040858D01*
X0265347Y0040820D01*
X0265276Y0040779D01*
X0265208Y0040734D01*
X0265141Y0040686D01*
X0265077Y0040635D01*
X0265015Y0040582D01*
X0264956Y0040525D01*
X0264899Y0040466D01*
X0264846Y0040404D01*
X0264795Y0040340D01*
X0264747Y0040273D01*
X0264702Y0040205D01*
X0264661Y0040134D01*
X0264623Y0040062D01*
X0264588Y0039988D01*
X0264557Y0039912D01*
X0264529Y0039835D01*
X0264505Y0039757D01*
X0264484Y0039678D01*
X0264467Y0039598D01*
X0264454Y0039517D01*
X0264445Y0039435D01*
X0264439Y0039354D01*
X0264437Y0039272D01*
X0264439Y0039190D01*
X0264445Y0039109D01*
X0264454Y0039027D01*
X0264467Y0038946D01*
X0264484Y0038866D01*
X0264505Y0038787D01*
X0264529Y0038709D01*
X0264557Y0038632D01*
X0264588Y0038556D01*
X0264623Y0038482D01*
X0264661Y0038410D01*
X0264702Y0038339D01*
X0264747Y0038271D01*
X0264795Y0038204D01*
X0264846Y0038140D01*
X0264899Y0038078D01*
X0264956Y0038019D01*
X0265015Y0037962D01*
X0265077Y0037909D01*
X0265141Y0037858D01*
X0265208Y0037810D01*
X0265276Y0037765D01*
X0265347Y0037724D01*
X0265419Y0037686D01*
X0265493Y0037651D01*
X0265569Y0037620D01*
X0265646Y0037592D01*
X0265724Y0037568D01*
X0265803Y0037547D01*
X0265883Y0037530D01*
X0265964Y0037517D01*
X0266046Y0037508D01*
X0266127Y0037502D01*
X0266209Y0037500D01*
X0266209Y0094587D02*
X0270934Y0094587D01*
X0270934Y0094586D02*
X0271016Y0094588D01*
X0271097Y0094594D01*
X0271179Y0094603D01*
X0271260Y0094616D01*
X0271340Y0094633D01*
X0271419Y0094654D01*
X0271497Y0094678D01*
X0271574Y0094706D01*
X0271650Y0094737D01*
X0271724Y0094772D01*
X0271796Y0094810D01*
X0271867Y0094851D01*
X0271935Y0094896D01*
X0272002Y0094944D01*
X0272066Y0094995D01*
X0272128Y0095048D01*
X0272187Y0095105D01*
X0272244Y0095164D01*
X0272297Y0095226D01*
X0272348Y0095290D01*
X0272396Y0095357D01*
X0272441Y0095425D01*
X0272482Y0095496D01*
X0272520Y0095568D01*
X0272555Y0095642D01*
X0272586Y0095718D01*
X0272614Y0095795D01*
X0272638Y0095873D01*
X0272659Y0095952D01*
X0272676Y0096032D01*
X0272689Y0096113D01*
X0272698Y0096195D01*
X0272704Y0096276D01*
X0272706Y0096358D01*
X0272704Y0096440D01*
X0272698Y0096521D01*
X0272689Y0096603D01*
X0272676Y0096684D01*
X0272659Y0096764D01*
X0272638Y0096843D01*
X0272614Y0096921D01*
X0272586Y0096998D01*
X0272555Y0097074D01*
X0272520Y0097148D01*
X0272482Y0097220D01*
X0272441Y0097291D01*
X0272396Y0097359D01*
X0272348Y0097426D01*
X0272297Y0097490D01*
X0272244Y0097552D01*
X0272187Y0097611D01*
X0272128Y0097668D01*
X0272066Y0097721D01*
X0272002Y0097772D01*
X0271935Y0097820D01*
X0271867Y0097865D01*
X0271796Y0097906D01*
X0271724Y0097944D01*
X0271650Y0097979D01*
X0271574Y0098010D01*
X0271497Y0098038D01*
X0271419Y0098062D01*
X0271340Y0098083D01*
X0271260Y0098100D01*
X0271179Y0098113D01*
X0271097Y0098122D01*
X0271016Y0098128D01*
X0270934Y0098130D01*
X0266209Y0098130D01*
X0266127Y0098128D01*
X0266046Y0098122D01*
X0265964Y0098113D01*
X0265883Y0098100D01*
X0265803Y0098083D01*
X0265724Y0098062D01*
X0265646Y0098038D01*
X0265569Y0098010D01*
X0265493Y0097979D01*
X0265419Y0097944D01*
X0265347Y0097906D01*
X0265276Y0097865D01*
X0265208Y0097820D01*
X0265141Y0097772D01*
X0265077Y0097721D01*
X0265015Y0097668D01*
X0264956Y0097611D01*
X0264899Y0097552D01*
X0264846Y0097490D01*
X0264795Y0097426D01*
X0264747Y0097359D01*
X0264702Y0097291D01*
X0264661Y0097220D01*
X0264623Y0097148D01*
X0264588Y0097074D01*
X0264557Y0096998D01*
X0264529Y0096921D01*
X0264505Y0096843D01*
X0264484Y0096764D01*
X0264467Y0096684D01*
X0264454Y0096603D01*
X0264445Y0096521D01*
X0264439Y0096440D01*
X0264437Y0096358D01*
X0264439Y0096276D01*
X0264445Y0096195D01*
X0264454Y0096113D01*
X0264467Y0096032D01*
X0264484Y0095952D01*
X0264505Y0095873D01*
X0264529Y0095795D01*
X0264557Y0095718D01*
X0264588Y0095642D01*
X0264623Y0095568D01*
X0264661Y0095496D01*
X0264702Y0095425D01*
X0264747Y0095357D01*
X0264795Y0095290D01*
X0264846Y0095226D01*
X0264899Y0095164D01*
X0264956Y0095105D01*
X0265015Y0095048D01*
X0265077Y0094995D01*
X0265141Y0094944D01*
X0265208Y0094896D01*
X0265276Y0094851D01*
X0265347Y0094810D01*
X0265419Y0094772D01*
X0265493Y0094737D01*
X0265569Y0094706D01*
X0265646Y0094678D01*
X0265724Y0094654D01*
X0265803Y0094633D01*
X0265883Y0094616D01*
X0265964Y0094603D01*
X0266046Y0094594D01*
X0266127Y0094588D01*
X0266209Y0094586D01*
X0248650Y0094587D02*
X0241564Y0094587D01*
X0239792Y0096358D02*
X0239794Y0096440D01*
X0239800Y0096521D01*
X0239809Y0096603D01*
X0239822Y0096684D01*
X0239839Y0096764D01*
X0239860Y0096843D01*
X0239884Y0096921D01*
X0239912Y0096998D01*
X0239943Y0097074D01*
X0239978Y0097148D01*
X0240016Y0097220D01*
X0240057Y0097291D01*
X0240102Y0097359D01*
X0240150Y0097426D01*
X0240201Y0097490D01*
X0240254Y0097552D01*
X0240311Y0097611D01*
X0240370Y0097668D01*
X0240432Y0097721D01*
X0240496Y0097772D01*
X0240563Y0097820D01*
X0240631Y0097865D01*
X0240702Y0097906D01*
X0240774Y0097944D01*
X0240848Y0097979D01*
X0240924Y0098010D01*
X0241001Y0098038D01*
X0241079Y0098062D01*
X0241158Y0098083D01*
X0241238Y0098100D01*
X0241319Y0098113D01*
X0241401Y0098122D01*
X0241482Y0098128D01*
X0241564Y0098130D01*
X0248650Y0098130D01*
X0250422Y0096358D02*
X0250420Y0096276D01*
X0250414Y0096195D01*
X0250405Y0096113D01*
X0250392Y0096032D01*
X0250375Y0095952D01*
X0250354Y0095873D01*
X0250330Y0095795D01*
X0250302Y0095718D01*
X0250271Y0095642D01*
X0250236Y0095568D01*
X0250198Y0095496D01*
X0250157Y0095425D01*
X0250112Y0095357D01*
X0250064Y0095290D01*
X0250013Y0095226D01*
X0249960Y0095164D01*
X0249903Y0095105D01*
X0249844Y0095048D01*
X0249782Y0094995D01*
X0249718Y0094944D01*
X0249651Y0094896D01*
X0249583Y0094851D01*
X0249512Y0094810D01*
X0249440Y0094772D01*
X0249366Y0094737D01*
X0249290Y0094706D01*
X0249213Y0094678D01*
X0249135Y0094654D01*
X0249056Y0094633D01*
X0248976Y0094616D01*
X0248895Y0094603D01*
X0248813Y0094594D01*
X0248732Y0094588D01*
X0248650Y0094586D01*
X0250422Y0096358D02*
X0250420Y0096440D01*
X0250414Y0096521D01*
X0250405Y0096603D01*
X0250392Y0096684D01*
X0250375Y0096764D01*
X0250354Y0096843D01*
X0250330Y0096921D01*
X0250302Y0096998D01*
X0250271Y0097074D01*
X0250236Y0097148D01*
X0250198Y0097220D01*
X0250157Y0097291D01*
X0250112Y0097359D01*
X0250064Y0097426D01*
X0250013Y0097490D01*
X0249960Y0097552D01*
X0249903Y0097611D01*
X0249844Y0097668D01*
X0249782Y0097721D01*
X0249718Y0097772D01*
X0249651Y0097820D01*
X0249583Y0097865D01*
X0249512Y0097906D01*
X0249440Y0097944D01*
X0249366Y0097979D01*
X0249290Y0098010D01*
X0249213Y0098038D01*
X0249135Y0098062D01*
X0249056Y0098083D01*
X0248976Y0098100D01*
X0248895Y0098113D01*
X0248813Y0098122D01*
X0248732Y0098128D01*
X0248650Y0098130D01*
X0241564Y0094586D02*
X0241482Y0094588D01*
X0241401Y0094594D01*
X0241319Y0094603D01*
X0241238Y0094616D01*
X0241158Y0094633D01*
X0241079Y0094654D01*
X0241001Y0094678D01*
X0240924Y0094706D01*
X0240848Y0094737D01*
X0240774Y0094772D01*
X0240702Y0094810D01*
X0240631Y0094851D01*
X0240563Y0094896D01*
X0240496Y0094944D01*
X0240432Y0094995D01*
X0240370Y0095048D01*
X0240311Y0095105D01*
X0240254Y0095164D01*
X0240201Y0095226D01*
X0240150Y0095290D01*
X0240102Y0095357D01*
X0240057Y0095425D01*
X0240016Y0095496D01*
X0239978Y0095568D01*
X0239943Y0095642D01*
X0239912Y0095718D01*
X0239884Y0095795D01*
X0239860Y0095873D01*
X0239839Y0095952D01*
X0239822Y0096032D01*
X0239809Y0096113D01*
X0239800Y0096195D01*
X0239794Y0096276D01*
X0239792Y0096358D01*
X0241564Y0177500D02*
X0248650Y0177500D01*
X0248732Y0177502D01*
X0248813Y0177508D01*
X0248895Y0177517D01*
X0248976Y0177530D01*
X0249056Y0177547D01*
X0249135Y0177568D01*
X0249213Y0177592D01*
X0249290Y0177620D01*
X0249366Y0177651D01*
X0249440Y0177686D01*
X0249512Y0177724D01*
X0249583Y0177765D01*
X0249651Y0177810D01*
X0249718Y0177858D01*
X0249782Y0177909D01*
X0249844Y0177962D01*
X0249903Y0178019D01*
X0249960Y0178078D01*
X0250013Y0178140D01*
X0250064Y0178204D01*
X0250112Y0178271D01*
X0250157Y0178339D01*
X0250198Y0178410D01*
X0250236Y0178482D01*
X0250271Y0178556D01*
X0250302Y0178632D01*
X0250330Y0178709D01*
X0250354Y0178787D01*
X0250375Y0178866D01*
X0250392Y0178946D01*
X0250405Y0179027D01*
X0250414Y0179109D01*
X0250420Y0179190D01*
X0250422Y0179272D01*
X0250420Y0179354D01*
X0250414Y0179435D01*
X0250405Y0179517D01*
X0250392Y0179598D01*
X0250375Y0179678D01*
X0250354Y0179757D01*
X0250330Y0179835D01*
X0250302Y0179912D01*
X0250271Y0179988D01*
X0250236Y0180062D01*
X0250198Y0180134D01*
X0250157Y0180205D01*
X0250112Y0180273D01*
X0250064Y0180340D01*
X0250013Y0180404D01*
X0249960Y0180466D01*
X0249903Y0180525D01*
X0249844Y0180582D01*
X0249782Y0180635D01*
X0249718Y0180686D01*
X0249651Y0180734D01*
X0249583Y0180779D01*
X0249512Y0180820D01*
X0249440Y0180858D01*
X0249366Y0180893D01*
X0249290Y0180924D01*
X0249213Y0180952D01*
X0249135Y0180976D01*
X0249056Y0180997D01*
X0248976Y0181014D01*
X0248895Y0181027D01*
X0248813Y0181036D01*
X0248732Y0181042D01*
X0248650Y0181044D01*
X0248650Y0181043D02*
X0241564Y0181043D01*
X0241564Y0181044D02*
X0241482Y0181042D01*
X0241401Y0181036D01*
X0241319Y0181027D01*
X0241238Y0181014D01*
X0241158Y0180997D01*
X0241079Y0180976D01*
X0241001Y0180952D01*
X0240924Y0180924D01*
X0240848Y0180893D01*
X0240774Y0180858D01*
X0240702Y0180820D01*
X0240631Y0180779D01*
X0240563Y0180734D01*
X0240496Y0180686D01*
X0240432Y0180635D01*
X0240370Y0180582D01*
X0240311Y0180525D01*
X0240254Y0180466D01*
X0240201Y0180404D01*
X0240150Y0180340D01*
X0240102Y0180273D01*
X0240057Y0180205D01*
X0240016Y0180134D01*
X0239978Y0180062D01*
X0239943Y0179988D01*
X0239912Y0179912D01*
X0239884Y0179835D01*
X0239860Y0179757D01*
X0239839Y0179678D01*
X0239822Y0179598D01*
X0239809Y0179517D01*
X0239800Y0179435D01*
X0239794Y0179354D01*
X0239792Y0179272D01*
X0239794Y0179190D01*
X0239800Y0179109D01*
X0239809Y0179027D01*
X0239822Y0178946D01*
X0239839Y0178866D01*
X0239860Y0178787D01*
X0239884Y0178709D01*
X0239912Y0178632D01*
X0239943Y0178556D01*
X0239978Y0178482D01*
X0240016Y0178410D01*
X0240057Y0178339D01*
X0240102Y0178271D01*
X0240150Y0178204D01*
X0240201Y0178140D01*
X0240254Y0178078D01*
X0240311Y0178019D01*
X0240370Y0177962D01*
X0240432Y0177909D01*
X0240496Y0177858D01*
X0240563Y0177810D01*
X0240631Y0177765D01*
X0240702Y0177724D01*
X0240774Y0177686D01*
X0240848Y0177651D01*
X0240924Y0177620D01*
X0241001Y0177592D01*
X0241079Y0177568D01*
X0241158Y0177547D01*
X0241238Y0177530D01*
X0241319Y0177517D01*
X0241401Y0177508D01*
X0241482Y0177502D01*
X0241564Y0177500D01*
X0266209Y0177500D02*
X0270934Y0177500D01*
X0271016Y0177502D01*
X0271097Y0177508D01*
X0271179Y0177517D01*
X0271260Y0177530D01*
X0271340Y0177547D01*
X0271419Y0177568D01*
X0271497Y0177592D01*
X0271574Y0177620D01*
X0271650Y0177651D01*
X0271724Y0177686D01*
X0271796Y0177724D01*
X0271867Y0177765D01*
X0271935Y0177810D01*
X0272002Y0177858D01*
X0272066Y0177909D01*
X0272128Y0177962D01*
X0272187Y0178019D01*
X0272244Y0178078D01*
X0272297Y0178140D01*
X0272348Y0178204D01*
X0272396Y0178271D01*
X0272441Y0178339D01*
X0272482Y0178410D01*
X0272520Y0178482D01*
X0272555Y0178556D01*
X0272586Y0178632D01*
X0272614Y0178709D01*
X0272638Y0178787D01*
X0272659Y0178866D01*
X0272676Y0178946D01*
X0272689Y0179027D01*
X0272698Y0179109D01*
X0272704Y0179190D01*
X0272706Y0179272D01*
X0272704Y0179354D01*
X0272698Y0179435D01*
X0272689Y0179517D01*
X0272676Y0179598D01*
X0272659Y0179678D01*
X0272638Y0179757D01*
X0272614Y0179835D01*
X0272586Y0179912D01*
X0272555Y0179988D01*
X0272520Y0180062D01*
X0272482Y0180134D01*
X0272441Y0180205D01*
X0272396Y0180273D01*
X0272348Y0180340D01*
X0272297Y0180404D01*
X0272244Y0180466D01*
X0272187Y0180525D01*
X0272128Y0180582D01*
X0272066Y0180635D01*
X0272002Y0180686D01*
X0271935Y0180734D01*
X0271867Y0180779D01*
X0271796Y0180820D01*
X0271724Y0180858D01*
X0271650Y0180893D01*
X0271574Y0180924D01*
X0271497Y0180952D01*
X0271419Y0180976D01*
X0271340Y0180997D01*
X0271260Y0181014D01*
X0271179Y0181027D01*
X0271097Y0181036D01*
X0271016Y0181042D01*
X0270934Y0181044D01*
X0270934Y0181043D02*
X0266209Y0181043D01*
X0266209Y0181044D02*
X0266127Y0181042D01*
X0266046Y0181036D01*
X0265964Y0181027D01*
X0265883Y0181014D01*
X0265803Y0180997D01*
X0265724Y0180976D01*
X0265646Y0180952D01*
X0265569Y0180924D01*
X0265493Y0180893D01*
X0265419Y0180858D01*
X0265347Y0180820D01*
X0265276Y0180779D01*
X0265208Y0180734D01*
X0265141Y0180686D01*
X0265077Y0180635D01*
X0265015Y0180582D01*
X0264956Y0180525D01*
X0264899Y0180466D01*
X0264846Y0180404D01*
X0264795Y0180340D01*
X0264747Y0180273D01*
X0264702Y0180205D01*
X0264661Y0180134D01*
X0264623Y0180062D01*
X0264588Y0179988D01*
X0264557Y0179912D01*
X0264529Y0179835D01*
X0264505Y0179757D01*
X0264484Y0179678D01*
X0264467Y0179598D01*
X0264454Y0179517D01*
X0264445Y0179435D01*
X0264439Y0179354D01*
X0264437Y0179272D01*
X0264439Y0179190D01*
X0264445Y0179109D01*
X0264454Y0179027D01*
X0264467Y0178946D01*
X0264484Y0178866D01*
X0264505Y0178787D01*
X0264529Y0178709D01*
X0264557Y0178632D01*
X0264588Y0178556D01*
X0264623Y0178482D01*
X0264661Y0178410D01*
X0264702Y0178339D01*
X0264747Y0178271D01*
X0264795Y0178204D01*
X0264846Y0178140D01*
X0264899Y0178078D01*
X0264956Y0178019D01*
X0265015Y0177962D01*
X0265077Y0177909D01*
X0265141Y0177858D01*
X0265208Y0177810D01*
X0265276Y0177765D01*
X0265347Y0177724D01*
X0265419Y0177686D01*
X0265493Y0177651D01*
X0265569Y0177620D01*
X0265646Y0177592D01*
X0265724Y0177568D01*
X0265803Y0177547D01*
X0265883Y0177530D01*
X0265964Y0177517D01*
X0266046Y0177508D01*
X0266127Y0177502D01*
X0266209Y0177500D01*
X0266209Y0234587D02*
X0270934Y0234587D01*
X0270934Y0234586D02*
X0271016Y0234588D01*
X0271097Y0234594D01*
X0271179Y0234603D01*
X0271260Y0234616D01*
X0271340Y0234633D01*
X0271419Y0234654D01*
X0271497Y0234678D01*
X0271574Y0234706D01*
X0271650Y0234737D01*
X0271724Y0234772D01*
X0271796Y0234810D01*
X0271867Y0234851D01*
X0271935Y0234896D01*
X0272002Y0234944D01*
X0272066Y0234995D01*
X0272128Y0235048D01*
X0272187Y0235105D01*
X0272244Y0235164D01*
X0272297Y0235226D01*
X0272348Y0235290D01*
X0272396Y0235357D01*
X0272441Y0235425D01*
X0272482Y0235496D01*
X0272520Y0235568D01*
X0272555Y0235642D01*
X0272586Y0235718D01*
X0272614Y0235795D01*
X0272638Y0235873D01*
X0272659Y0235952D01*
X0272676Y0236032D01*
X0272689Y0236113D01*
X0272698Y0236195D01*
X0272704Y0236276D01*
X0272706Y0236358D01*
X0272704Y0236440D01*
X0272698Y0236521D01*
X0272689Y0236603D01*
X0272676Y0236684D01*
X0272659Y0236764D01*
X0272638Y0236843D01*
X0272614Y0236921D01*
X0272586Y0236998D01*
X0272555Y0237074D01*
X0272520Y0237148D01*
X0272482Y0237220D01*
X0272441Y0237291D01*
X0272396Y0237359D01*
X0272348Y0237426D01*
X0272297Y0237490D01*
X0272244Y0237552D01*
X0272187Y0237611D01*
X0272128Y0237668D01*
X0272066Y0237721D01*
X0272002Y0237772D01*
X0271935Y0237820D01*
X0271867Y0237865D01*
X0271796Y0237906D01*
X0271724Y0237944D01*
X0271650Y0237979D01*
X0271574Y0238010D01*
X0271497Y0238038D01*
X0271419Y0238062D01*
X0271340Y0238083D01*
X0271260Y0238100D01*
X0271179Y0238113D01*
X0271097Y0238122D01*
X0271016Y0238128D01*
X0270934Y0238130D01*
X0266209Y0238130D01*
X0266127Y0238128D01*
X0266046Y0238122D01*
X0265964Y0238113D01*
X0265883Y0238100D01*
X0265803Y0238083D01*
X0265724Y0238062D01*
X0265646Y0238038D01*
X0265569Y0238010D01*
X0265493Y0237979D01*
X0265419Y0237944D01*
X0265347Y0237906D01*
X0265276Y0237865D01*
X0265208Y0237820D01*
X0265141Y0237772D01*
X0265077Y0237721D01*
X0265015Y0237668D01*
X0264956Y0237611D01*
X0264899Y0237552D01*
X0264846Y0237490D01*
X0264795Y0237426D01*
X0264747Y0237359D01*
X0264702Y0237291D01*
X0264661Y0237220D01*
X0264623Y0237148D01*
X0264588Y0237074D01*
X0264557Y0236998D01*
X0264529Y0236921D01*
X0264505Y0236843D01*
X0264484Y0236764D01*
X0264467Y0236684D01*
X0264454Y0236603D01*
X0264445Y0236521D01*
X0264439Y0236440D01*
X0264437Y0236358D01*
X0264439Y0236276D01*
X0264445Y0236195D01*
X0264454Y0236113D01*
X0264467Y0236032D01*
X0264484Y0235952D01*
X0264505Y0235873D01*
X0264529Y0235795D01*
X0264557Y0235718D01*
X0264588Y0235642D01*
X0264623Y0235568D01*
X0264661Y0235496D01*
X0264702Y0235425D01*
X0264747Y0235357D01*
X0264795Y0235290D01*
X0264846Y0235226D01*
X0264899Y0235164D01*
X0264956Y0235105D01*
X0265015Y0235048D01*
X0265077Y0234995D01*
X0265141Y0234944D01*
X0265208Y0234896D01*
X0265276Y0234851D01*
X0265347Y0234810D01*
X0265419Y0234772D01*
X0265493Y0234737D01*
X0265569Y0234706D01*
X0265646Y0234678D01*
X0265724Y0234654D01*
X0265803Y0234633D01*
X0265883Y0234616D01*
X0265964Y0234603D01*
X0266046Y0234594D01*
X0266127Y0234588D01*
X0266209Y0234586D01*
X0248650Y0234587D02*
X0241564Y0234587D01*
X0239792Y0236358D02*
X0239794Y0236440D01*
X0239800Y0236521D01*
X0239809Y0236603D01*
X0239822Y0236684D01*
X0239839Y0236764D01*
X0239860Y0236843D01*
X0239884Y0236921D01*
X0239912Y0236998D01*
X0239943Y0237074D01*
X0239978Y0237148D01*
X0240016Y0237220D01*
X0240057Y0237291D01*
X0240102Y0237359D01*
X0240150Y0237426D01*
X0240201Y0237490D01*
X0240254Y0237552D01*
X0240311Y0237611D01*
X0240370Y0237668D01*
X0240432Y0237721D01*
X0240496Y0237772D01*
X0240563Y0237820D01*
X0240631Y0237865D01*
X0240702Y0237906D01*
X0240774Y0237944D01*
X0240848Y0237979D01*
X0240924Y0238010D01*
X0241001Y0238038D01*
X0241079Y0238062D01*
X0241158Y0238083D01*
X0241238Y0238100D01*
X0241319Y0238113D01*
X0241401Y0238122D01*
X0241482Y0238128D01*
X0241564Y0238130D01*
X0248650Y0238130D01*
X0250422Y0236358D02*
X0250420Y0236276D01*
X0250414Y0236195D01*
X0250405Y0236113D01*
X0250392Y0236032D01*
X0250375Y0235952D01*
X0250354Y0235873D01*
X0250330Y0235795D01*
X0250302Y0235718D01*
X0250271Y0235642D01*
X0250236Y0235568D01*
X0250198Y0235496D01*
X0250157Y0235425D01*
X0250112Y0235357D01*
X0250064Y0235290D01*
X0250013Y0235226D01*
X0249960Y0235164D01*
X0249903Y0235105D01*
X0249844Y0235048D01*
X0249782Y0234995D01*
X0249718Y0234944D01*
X0249651Y0234896D01*
X0249583Y0234851D01*
X0249512Y0234810D01*
X0249440Y0234772D01*
X0249366Y0234737D01*
X0249290Y0234706D01*
X0249213Y0234678D01*
X0249135Y0234654D01*
X0249056Y0234633D01*
X0248976Y0234616D01*
X0248895Y0234603D01*
X0248813Y0234594D01*
X0248732Y0234588D01*
X0248650Y0234586D01*
X0250422Y0236358D02*
X0250420Y0236440D01*
X0250414Y0236521D01*
X0250405Y0236603D01*
X0250392Y0236684D01*
X0250375Y0236764D01*
X0250354Y0236843D01*
X0250330Y0236921D01*
X0250302Y0236998D01*
X0250271Y0237074D01*
X0250236Y0237148D01*
X0250198Y0237220D01*
X0250157Y0237291D01*
X0250112Y0237359D01*
X0250064Y0237426D01*
X0250013Y0237490D01*
X0249960Y0237552D01*
X0249903Y0237611D01*
X0249844Y0237668D01*
X0249782Y0237721D01*
X0249718Y0237772D01*
X0249651Y0237820D01*
X0249583Y0237865D01*
X0249512Y0237906D01*
X0249440Y0237944D01*
X0249366Y0237979D01*
X0249290Y0238010D01*
X0249213Y0238038D01*
X0249135Y0238062D01*
X0249056Y0238083D01*
X0248976Y0238100D01*
X0248895Y0238113D01*
X0248813Y0238122D01*
X0248732Y0238128D01*
X0248650Y0238130D01*
X0241564Y0234586D02*
X0241482Y0234588D01*
X0241401Y0234594D01*
X0241319Y0234603D01*
X0241238Y0234616D01*
X0241158Y0234633D01*
X0241079Y0234654D01*
X0241001Y0234678D01*
X0240924Y0234706D01*
X0240848Y0234737D01*
X0240774Y0234772D01*
X0240702Y0234810D01*
X0240631Y0234851D01*
X0240563Y0234896D01*
X0240496Y0234944D01*
X0240432Y0234995D01*
X0240370Y0235048D01*
X0240311Y0235105D01*
X0240254Y0235164D01*
X0240201Y0235226D01*
X0240150Y0235290D01*
X0240102Y0235357D01*
X0240057Y0235425D01*
X0240016Y0235496D01*
X0239978Y0235568D01*
X0239943Y0235642D01*
X0239912Y0235718D01*
X0239884Y0235795D01*
X0239860Y0235873D01*
X0239839Y0235952D01*
X0239822Y0236032D01*
X0239809Y0236113D01*
X0239800Y0236195D01*
X0239794Y0236276D01*
X0239792Y0236358D01*
M02*
