G75*
%MOIN*%
%OFA0B0*%
%FSLAX25Y25*%
%IPPOS*%
%LPD*%
%AMOC8*
5,1,8,0,0,1.08239X$1,22.5*
%
%ADD10R,0.08300X0.02300*%
%ADD11C,0.05450*%
%ADD12R,0.06106X0.05318*%
%ADD13R,0.05318X0.06106*%
%ADD14C,0.06696*%
%ADD15C,0.05515*%
%ADD16C,0.01302*%
%ADD17C,0.01162*%
%ADD18R,0.04137X0.04531*%
%ADD19R,0.04531X0.04137*%
D10*
X0046800Y0062815D03*
X0046800Y0065965D03*
X0046800Y0069114D03*
X0046800Y0072264D03*
X0046800Y0075413D03*
X0046800Y0078563D03*
X0046800Y0081713D03*
X0046800Y0084862D03*
X0046800Y0088012D03*
X0046800Y0091162D03*
X0046800Y0094311D03*
X0046800Y0097461D03*
X0046800Y0100610D03*
X0046800Y0103760D03*
X0046800Y0106910D03*
X0046800Y0110059D03*
X0046800Y0113209D03*
X0046800Y0116358D03*
X0046800Y0119508D03*
X0046800Y0122658D03*
X0046800Y0125807D03*
X0046800Y0128957D03*
X0046800Y0132106D03*
X0046800Y0135256D03*
X0046800Y0138406D03*
X0046800Y0141555D03*
X0046800Y0144705D03*
X0046800Y0147854D03*
X0046800Y0151004D03*
X0046800Y0154154D03*
X0046800Y0157303D03*
X0046800Y0160453D03*
X0046800Y0163602D03*
X0046800Y0166752D03*
X0046800Y0169902D03*
X0046800Y0173051D03*
X0046800Y0176201D03*
X0046800Y0179351D03*
X0046800Y0182500D03*
X0046800Y0185650D03*
X0046800Y0188799D03*
X0046800Y0191949D03*
X0046800Y0195099D03*
X0046800Y0198248D03*
X0046800Y0201398D03*
X0046800Y0204547D03*
X0046800Y0207697D03*
X0046800Y0210847D03*
X0046800Y0213996D03*
X0046800Y0217146D03*
X0046800Y0220295D03*
X0046800Y0223445D03*
X0046800Y0226595D03*
X0046800Y0229744D03*
X0046800Y0232894D03*
X0046800Y0236043D03*
X0046800Y0239193D03*
X0046800Y0242343D03*
X0046800Y0245492D03*
X0046800Y0248642D03*
X0064123Y0248642D03*
X0064123Y0245492D03*
X0064123Y0242343D03*
X0064123Y0239193D03*
X0064123Y0236043D03*
X0064123Y0232894D03*
X0064123Y0229744D03*
X0064123Y0226595D03*
X0064123Y0223445D03*
X0064123Y0220295D03*
X0064123Y0217146D03*
X0064123Y0213996D03*
X0064123Y0210847D03*
X0064123Y0207697D03*
X0064123Y0204547D03*
X0064123Y0201398D03*
X0064123Y0198248D03*
X0064123Y0195099D03*
X0064123Y0191949D03*
X0064123Y0188799D03*
X0064123Y0185650D03*
X0064123Y0182500D03*
X0064123Y0179351D03*
X0064123Y0176201D03*
X0064123Y0173051D03*
X0064123Y0169902D03*
X0064123Y0166752D03*
X0064123Y0163602D03*
X0064123Y0160453D03*
X0064123Y0157303D03*
X0064123Y0154154D03*
X0064123Y0151004D03*
X0064123Y0147854D03*
X0064123Y0144705D03*
X0064123Y0141555D03*
X0064123Y0138406D03*
X0064123Y0135256D03*
X0064123Y0132106D03*
X0064123Y0128957D03*
X0064123Y0125807D03*
X0064123Y0122658D03*
X0064123Y0119508D03*
X0064123Y0116358D03*
X0064123Y0113209D03*
X0064123Y0110059D03*
X0064123Y0106910D03*
X0064123Y0103760D03*
X0064123Y0100610D03*
X0064123Y0097461D03*
X0064123Y0094311D03*
X0064123Y0091162D03*
X0064123Y0088012D03*
X0064123Y0084862D03*
X0064123Y0081713D03*
X0064123Y0078563D03*
X0064123Y0075413D03*
X0064123Y0072264D03*
X0064123Y0069114D03*
X0064123Y0065965D03*
X0064123Y0062815D03*
D11*
X0055500Y0052915D03*
D12*
X0096800Y0129075D03*
X0096800Y0136555D03*
X0104300Y0136555D03*
X0104300Y0129075D03*
X0081800Y0144075D03*
X0081800Y0151555D03*
X0081800Y0164075D03*
X0081800Y0171555D03*
X0141800Y0179075D03*
X0141800Y0186555D03*
X0151800Y0186555D03*
X0151800Y0179075D03*
X0166800Y0179075D03*
X0166800Y0186555D03*
X0176800Y0186555D03*
X0176800Y0179075D03*
X0141800Y0204075D03*
X0141800Y0211555D03*
X0196800Y0254075D03*
X0196800Y0261555D03*
D13*
X0208060Y0262815D03*
X0215540Y0262815D03*
X0215540Y0252815D03*
X0208060Y0252815D03*
X0208060Y0242815D03*
X0215540Y0242815D03*
X0130540Y0127815D03*
X0123060Y0127815D03*
X0123060Y0119690D03*
X0130540Y0119690D03*
X0130540Y0110940D03*
X0123060Y0110940D03*
X0123060Y0102815D03*
X0130540Y0102815D03*
X0130540Y0092815D03*
X0123060Y0092815D03*
X0123060Y0082815D03*
X0130540Y0082815D03*
X0105540Y0080315D03*
X0098060Y0080315D03*
X0098060Y0071565D03*
X0105540Y0071565D03*
X0098040Y0152815D03*
X0090560Y0152815D03*
X0205560Y0040940D03*
X0213040Y0040940D03*
X0213040Y0032815D03*
X0205560Y0032815D03*
D14*
X0241859Y0039272D02*
X0248355Y0039272D01*
X0248355Y0096358D02*
X0241859Y0096358D01*
X0241859Y0179272D02*
X0248355Y0179272D01*
X0248355Y0236358D02*
X0241859Y0236358D01*
D15*
X0265914Y0236358D02*
X0271229Y0236358D01*
X0271229Y0179272D02*
X0265914Y0179272D01*
X0265914Y0096358D02*
X0271229Y0096358D01*
X0271229Y0039272D02*
X0265914Y0039272D01*
D16*
X0179611Y0212476D02*
X0178025Y0214062D01*
X0179417Y0215454D02*
X0181003Y0213868D01*
X0182395Y0215260D02*
X0180809Y0216846D01*
X0182201Y0218238D02*
X0183787Y0216652D01*
X0185179Y0218044D02*
X0183593Y0219630D01*
X0184985Y0221022D02*
X0186571Y0219436D01*
X0187963Y0220828D02*
X0186377Y0222414D01*
X0187769Y0223806D02*
X0189355Y0222220D01*
X0190747Y0223612D02*
X0189161Y0225198D01*
X0190553Y0226590D02*
X0192139Y0225004D01*
X0190553Y0229040D02*
X0192139Y0230626D01*
X0190747Y0232018D02*
X0189161Y0230432D01*
X0187769Y0231824D02*
X0189355Y0233410D01*
X0187963Y0234802D02*
X0186377Y0233216D01*
X0184985Y0234608D02*
X0186571Y0236194D01*
X0185179Y0237586D02*
X0183593Y0236000D01*
X0182201Y0237392D02*
X0183787Y0238978D01*
X0182395Y0240370D02*
X0180809Y0238784D01*
X0179417Y0240176D02*
X0181003Y0241762D01*
X0179611Y0243154D02*
X0178025Y0241568D01*
X0175575Y0241568D02*
X0173989Y0243154D01*
X0172597Y0241762D02*
X0174183Y0240176D01*
X0172791Y0238784D02*
X0171205Y0240370D01*
X0169813Y0238978D02*
X0171399Y0237392D01*
X0170007Y0236000D02*
X0168421Y0237586D01*
X0167029Y0236194D02*
X0168615Y0234608D01*
X0167223Y0233216D02*
X0165637Y0234802D01*
X0164245Y0233410D02*
X0165831Y0231824D01*
X0164439Y0230432D02*
X0162853Y0232018D01*
X0161461Y0230626D02*
X0163047Y0229040D01*
X0163047Y0226590D02*
X0161461Y0225004D01*
X0162853Y0223612D02*
X0164439Y0225198D01*
X0165831Y0223806D02*
X0164245Y0222220D01*
X0165637Y0220828D02*
X0167223Y0222414D01*
X0168615Y0221022D02*
X0167029Y0219436D01*
X0168421Y0218044D02*
X0170007Y0219630D01*
X0171399Y0218238D02*
X0169813Y0216652D01*
X0171205Y0215260D02*
X0172791Y0216846D01*
X0174183Y0215454D02*
X0172597Y0213868D01*
X0173989Y0212476D02*
X0175575Y0214062D01*
D17*
X0184192Y0227815D02*
X0176800Y0235207D01*
X0184192Y0227815D02*
X0176800Y0220423D01*
X0169408Y0227815D01*
X0176800Y0235207D01*
X0177961Y0221584D02*
X0175639Y0221584D01*
X0174478Y0222745D02*
X0179122Y0222745D01*
X0180283Y0223906D02*
X0173317Y0223906D01*
X0172156Y0225067D02*
X0181444Y0225067D01*
X0182605Y0226228D02*
X0170995Y0226228D01*
X0169834Y0227389D02*
X0183766Y0227389D01*
X0183457Y0228550D02*
X0170143Y0228550D01*
X0171304Y0229711D02*
X0182296Y0229711D01*
X0181135Y0230872D02*
X0172465Y0230872D01*
X0173626Y0232033D02*
X0179974Y0232033D01*
X0178813Y0233194D02*
X0174787Y0233194D01*
X0175948Y0234355D02*
X0177652Y0234355D01*
D18*
X0171800Y0251969D03*
X0171800Y0258662D03*
X0189300Y0261162D03*
X0189300Y0254469D03*
X0161800Y0206162D03*
X0161800Y0199469D03*
D19*
X0195954Y0209065D03*
X0202646Y0209065D03*
X0200954Y0222815D03*
X0207646Y0222815D03*
X0152646Y0240315D03*
X0145954Y0240315D03*
M02*
