G75*
%MOIN*%
%OFA0B0*%
%FSLAX25Y25*%
%IPPOS*%
%LPD*%
%AMOC8*
5,1,8,0,0,1.08239X$1,22.5*
%
%ADD10C,0.00600*%
%ADD11R,0.05512X0.02559*%
%ADD12C,0.00400*%
%ADD13R,0.02559X0.05512*%
%ADD14R,0.01969X0.03740*%
%ADD15C,0.00500*%
%ADD16C,0.00787*%
%ADD17C,0.00800*%
%ADD18R,0.02200X0.06800*%
%ADD19R,0.02400X0.06200*%
%ADD20R,0.02000X0.01500*%
%ADD21C,0.00300*%
%ADD22R,0.01500X0.02000*%
%ADD23C,0.00394*%
%ADD24C,0.00984*%
%ADD25R,0.03740X0.01969*%
%ADD26C,0.00200*%
%ADD27R,0.00787X0.00591*%
%ADD28R,0.00197X0.00197*%
%ADD29R,0.00197X0.01476*%
%ADD30R,0.00787X0.01181*%
%ADD31R,0.03543X0.00886*%
%ADD32R,0.00787X0.01969*%
%ADD33R,0.02165X0.00886*%
%ADD34R,0.00394X0.00394*%
%ADD35R,0.00984X0.00984*%
D10*
X0123050Y0061201D02*
X0123050Y0064429D01*
X0128050Y0064429D02*
X0128050Y0061201D01*
X0131800Y0061201D02*
X0131800Y0064429D01*
X0136800Y0064429D02*
X0136800Y0061201D01*
X0150186Y0050315D02*
X0153414Y0050315D01*
X0153414Y0045315D02*
X0150186Y0045315D01*
X0176800Y0019429D02*
X0176800Y0016201D01*
X0181800Y0016201D02*
X0181800Y0019429D01*
X0190300Y0023615D02*
X0190300Y0012215D01*
X0193300Y0012215D01*
X0193300Y0023615D01*
X0190300Y0023615D01*
X0200186Y0025315D02*
X0203414Y0025315D01*
X0203414Y0030315D02*
X0200186Y0030315D01*
X0211800Y0019429D02*
X0211800Y0016201D01*
X0216800Y0016201D02*
X0216800Y0019429D01*
X0221000Y0019315D02*
X0221000Y0016315D01*
X0232400Y0016315D01*
X0232400Y0019315D01*
X0221000Y0019315D01*
X0222686Y0030315D02*
X0225914Y0030315D01*
X0225914Y0035315D02*
X0222686Y0035315D01*
X0255186Y0030315D02*
X0258414Y0030315D01*
X0258414Y0025315D02*
X0255186Y0025315D01*
X0203414Y0100315D02*
X0200186Y0100315D01*
X0200186Y0105315D02*
X0203414Y0105315D01*
X0204300Y0116201D02*
X0204300Y0119429D01*
X0199300Y0119429D02*
X0199300Y0116201D01*
X0194300Y0116201D02*
X0194300Y0119429D01*
X0189300Y0119429D02*
X0189300Y0116201D01*
X0184300Y0116201D02*
X0184300Y0119429D01*
X0209300Y0119429D02*
X0209300Y0116201D01*
X0256600Y0115915D02*
X0267000Y0115915D01*
X0263414Y0120315D02*
X0260186Y0120315D01*
X0260186Y0125315D02*
X0263414Y0125315D01*
X0267000Y0109715D02*
X0256600Y0109715D01*
X0255186Y0165315D02*
X0258414Y0165315D01*
X0258414Y0170315D02*
X0255186Y0170315D01*
X0229300Y0171201D02*
X0229300Y0174429D01*
X0224300Y0174429D02*
X0224300Y0171201D01*
X0219300Y0171201D02*
X0219300Y0174429D01*
X0214300Y0174429D02*
X0214300Y0171201D01*
X0203300Y0168890D02*
X0200300Y0168890D01*
X0200300Y0180290D01*
X0203300Y0180290D01*
X0203300Y0168890D01*
X0188414Y0167815D02*
X0185186Y0167815D01*
X0185186Y0172815D02*
X0188414Y0172815D01*
X0119300Y0228701D02*
X0119300Y0231929D01*
X0114300Y0231929D02*
X0114300Y0228701D01*
X0109300Y0228701D02*
X0109300Y0231929D01*
X0104300Y0231929D02*
X0104300Y0228701D01*
X0084300Y0169429D02*
X0084300Y0166201D01*
X0079300Y0166201D02*
X0079300Y0169429D01*
X0092686Y0165315D02*
X0095914Y0165315D01*
X0095914Y0160315D02*
X0092686Y0160315D01*
X0084300Y0149429D02*
X0084300Y0146201D01*
X0079300Y0146201D02*
X0079300Y0149429D01*
X0256600Y0249715D02*
X0267000Y0249715D01*
X0267000Y0255915D02*
X0256600Y0255915D01*
X0260186Y0260315D02*
X0263414Y0260315D01*
X0263414Y0265315D02*
X0260186Y0265315D01*
D11*
X0226794Y0175695D03*
X0226794Y0169895D03*
X0216806Y0169936D03*
X0216806Y0175736D03*
X0206806Y0120736D03*
X0206806Y0114936D03*
X0196806Y0114936D03*
X0196806Y0120736D03*
X0186794Y0120695D03*
X0186794Y0114895D03*
X0134294Y0065695D03*
X0134294Y0059895D03*
X0125556Y0059936D03*
X0125556Y0065736D03*
X0179306Y0020736D03*
X0179306Y0014936D03*
X0214306Y0014936D03*
X0214306Y0020736D03*
X0081806Y0144936D03*
X0081806Y0150736D03*
X0081794Y0164895D03*
X0081794Y0170695D03*
X0106806Y0227436D03*
X0106806Y0233236D03*
X0116806Y0233236D03*
X0116806Y0227436D03*
D12*
X0117044Y0238565D02*
X0118913Y0240433D01*
X0118913Y0240900D01*
X0118446Y0241367D01*
X0117512Y0241367D01*
X0117044Y0240900D01*
X0115966Y0240900D02*
X0115966Y0239966D01*
X0115499Y0239499D01*
X0114098Y0239499D01*
X0114098Y0238565D02*
X0114098Y0241367D01*
X0115499Y0241367D01*
X0115966Y0240900D01*
X0115032Y0239499D02*
X0115966Y0238565D01*
X0117044Y0238565D02*
X0118913Y0238565D01*
X0119991Y0238565D02*
X0121859Y0240433D01*
X0121859Y0240900D01*
X0121392Y0241367D01*
X0120458Y0241367D01*
X0119991Y0240900D01*
X0119991Y0238565D02*
X0121859Y0238565D01*
X0110297Y0238878D02*
X0108428Y0238878D01*
X0109363Y0238878D02*
X0109363Y0241680D01*
X0108428Y0240746D01*
X0107350Y0240746D02*
X0107350Y0241213D01*
X0106883Y0241680D01*
X0105949Y0241680D01*
X0105482Y0241213D01*
X0104404Y0241213D02*
X0104404Y0240279D01*
X0103937Y0239812D01*
X0102535Y0239812D01*
X0102535Y0238878D02*
X0102535Y0241680D01*
X0103937Y0241680D01*
X0104404Y0241213D01*
X0103470Y0239812D02*
X0104404Y0238878D01*
X0105482Y0238878D02*
X0107350Y0240746D01*
X0107350Y0238878D02*
X0105482Y0238878D01*
X0083848Y0179567D02*
X0082914Y0179567D01*
X0082447Y0179100D01*
X0081368Y0179100D02*
X0081368Y0178166D01*
X0080901Y0177699D01*
X0079500Y0177699D01*
X0079500Y0176765D02*
X0079500Y0179567D01*
X0080901Y0179567D01*
X0081368Y0179100D01*
X0080434Y0177699D02*
X0081368Y0176765D01*
X0082447Y0177232D02*
X0082914Y0176765D01*
X0083848Y0176765D01*
X0084315Y0177232D01*
X0084315Y0177699D01*
X0083848Y0178166D01*
X0083381Y0178166D01*
X0083848Y0178166D02*
X0084315Y0178633D01*
X0084315Y0179100D01*
X0083848Y0179567D01*
X0087937Y0170192D02*
X0089339Y0170192D01*
X0089806Y0169725D01*
X0089806Y0168791D01*
X0089339Y0168324D01*
X0087937Y0168324D01*
X0087937Y0167390D02*
X0087937Y0170192D01*
X0088872Y0168324D02*
X0089806Y0167390D01*
X0090884Y0167390D02*
X0092752Y0167390D01*
X0091818Y0167390D02*
X0091818Y0170192D01*
X0090884Y0169258D01*
X0093831Y0170192D02*
X0095699Y0170192D01*
X0095699Y0169725D01*
X0093831Y0167857D01*
X0093831Y0167390D01*
X0083223Y0140192D02*
X0081822Y0138791D01*
X0083690Y0138791D01*
X0083223Y0137390D02*
X0083223Y0140192D01*
X0080743Y0139725D02*
X0080743Y0138791D01*
X0080276Y0138324D01*
X0078875Y0138324D01*
X0078875Y0137390D02*
X0078875Y0140192D01*
X0080276Y0140192D01*
X0080743Y0139725D01*
X0079809Y0138324D02*
X0080743Y0137390D01*
X0125660Y0137782D02*
X0126128Y0137315D01*
X0127062Y0137315D01*
X0127529Y0137782D01*
X0128607Y0137315D02*
X0130475Y0137315D01*
X0129541Y0137315D02*
X0129541Y0140117D01*
X0128607Y0139183D01*
X0127529Y0139650D02*
X0127062Y0140117D01*
X0126128Y0140117D01*
X0125660Y0139650D01*
X0125660Y0137782D01*
X0131553Y0137782D02*
X0133422Y0139650D01*
X0133422Y0137782D01*
X0132955Y0137315D01*
X0132021Y0137315D01*
X0131553Y0137782D01*
X0131553Y0139650D01*
X0132021Y0140117D01*
X0132955Y0140117D01*
X0133422Y0139650D01*
X0133422Y0144815D02*
X0131553Y0144815D01*
X0132488Y0144815D02*
X0132488Y0147617D01*
X0131553Y0146683D01*
X0130475Y0144815D02*
X0128607Y0144815D01*
X0129541Y0144815D02*
X0129541Y0147617D01*
X0128607Y0146683D01*
X0127529Y0147150D02*
X0127062Y0147617D01*
X0126128Y0147617D01*
X0125660Y0147150D01*
X0125660Y0145282D01*
X0126128Y0144815D01*
X0127062Y0144815D01*
X0127529Y0145282D01*
X0129074Y0152315D02*
X0130008Y0152315D01*
X0130475Y0152782D01*
X0131553Y0152782D02*
X0132021Y0152315D01*
X0132955Y0152315D01*
X0133422Y0152782D01*
X0133422Y0154650D01*
X0132955Y0155117D01*
X0132021Y0155117D01*
X0131553Y0154650D01*
X0131553Y0154183D01*
X0132021Y0153716D01*
X0133422Y0153716D01*
X0130475Y0154650D02*
X0130008Y0155117D01*
X0129074Y0155117D01*
X0128607Y0154650D01*
X0128607Y0152782D01*
X0129074Y0152315D01*
X0140398Y0151165D02*
X0143202Y0151165D01*
X0143202Y0154516D02*
X0140398Y0154516D01*
X0140398Y0147016D02*
X0143202Y0147016D01*
X0143202Y0143665D02*
X0140398Y0143665D01*
X0140398Y0139516D02*
X0143202Y0139516D01*
X0143202Y0136165D02*
X0140398Y0136165D01*
X0165099Y0111717D02*
X0165099Y0108913D01*
X0168450Y0108913D02*
X0168450Y0111717D01*
X0154700Y0106717D02*
X0154700Y0103913D01*
X0151349Y0103913D02*
X0151349Y0106717D01*
X0148202Y0069465D02*
X0145398Y0069465D01*
X0145398Y0066114D02*
X0148202Y0066114D01*
X0182650Y0056717D02*
X0182650Y0053913D01*
X0186001Y0053913D02*
X0186001Y0056717D01*
X0197898Y0076165D02*
X0200702Y0076165D01*
X0200702Y0079516D02*
X0197898Y0079516D01*
X0200398Y0093665D02*
X0203202Y0093665D01*
X0203202Y0097016D02*
X0200398Y0097016D01*
X0245012Y0155753D02*
X0245946Y0155753D01*
X0246413Y0156220D01*
X0247491Y0155753D02*
X0249359Y0155753D01*
X0248425Y0155753D02*
X0248425Y0158555D01*
X0247491Y0157621D01*
X0246413Y0158088D02*
X0245946Y0158555D01*
X0245012Y0158555D01*
X0244544Y0158088D01*
X0244544Y0156220D01*
X0245012Y0155753D01*
X0245475Y0165128D02*
X0243607Y0165128D01*
X0244541Y0165128D02*
X0244541Y0167930D01*
X0243607Y0166996D01*
X0242529Y0167463D02*
X0242529Y0166529D01*
X0242062Y0166062D01*
X0240660Y0166062D01*
X0240660Y0165128D02*
X0240660Y0167930D01*
X0242062Y0167930D01*
X0242529Y0167463D01*
X0241595Y0166062D02*
X0242529Y0165128D01*
X0246553Y0165595D02*
X0247021Y0165128D01*
X0247955Y0165128D01*
X0248422Y0165595D01*
X0248422Y0166062D01*
X0247955Y0166529D01*
X0247488Y0166529D01*
X0247955Y0166529D02*
X0248422Y0166996D01*
X0248422Y0167463D01*
X0247955Y0167930D01*
X0247021Y0167930D01*
X0246553Y0167463D01*
X0255398Y0159465D02*
X0258202Y0159465D01*
X0258202Y0156114D02*
X0255398Y0156114D01*
X0230922Y0161845D02*
X0230455Y0161378D01*
X0229521Y0161378D01*
X0229053Y0161845D01*
X0230922Y0163713D01*
X0230922Y0161845D01*
X0230922Y0163713D02*
X0230455Y0164180D01*
X0229521Y0164180D01*
X0229053Y0163713D01*
X0229053Y0161845D01*
X0227975Y0161378D02*
X0226107Y0161378D01*
X0227041Y0161378D02*
X0227041Y0164180D01*
X0226107Y0163246D01*
X0225029Y0163713D02*
X0225029Y0162779D01*
X0224562Y0162312D01*
X0223160Y0162312D01*
X0223160Y0161378D02*
X0223160Y0164180D01*
X0224562Y0164180D01*
X0225029Y0163713D01*
X0224095Y0162312D02*
X0225029Y0161378D01*
X0219672Y0161690D02*
X0217803Y0161690D01*
X0218738Y0161690D02*
X0218738Y0164492D01*
X0217803Y0163558D01*
X0216725Y0161690D02*
X0214857Y0161690D01*
X0215791Y0161690D02*
X0215791Y0164492D01*
X0214857Y0163558D01*
X0213779Y0163091D02*
X0213312Y0162624D01*
X0211910Y0162624D01*
X0211910Y0161690D02*
X0211910Y0164492D01*
X0213312Y0164492D01*
X0213779Y0164025D01*
X0213779Y0163091D01*
X0212845Y0162624D02*
X0213779Y0161690D01*
X0214998Y0174497D02*
X0214998Y0176365D01*
X0214998Y0175431D02*
X0217800Y0175431D01*
X0217800Y0177444D02*
X0217800Y0179312D01*
X0217800Y0178378D02*
X0214998Y0178378D01*
X0215932Y0177444D01*
X0231284Y0183389D02*
X0231751Y0182922D01*
X0232218Y0182922D01*
X0232685Y0183389D01*
X0232685Y0185725D01*
X0232218Y0185725D02*
X0233152Y0185725D01*
X0234230Y0185258D02*
X0234697Y0185725D01*
X0235631Y0185725D01*
X0236098Y0185258D01*
X0236098Y0184791D01*
X0234230Y0182922D01*
X0236098Y0182922D01*
X0193734Y0164650D02*
X0193267Y0165117D01*
X0192333Y0165117D01*
X0191866Y0164650D01*
X0193734Y0164650D02*
X0193734Y0164183D01*
X0191866Y0162315D01*
X0193734Y0162315D01*
X0190788Y0162315D02*
X0188919Y0162315D01*
X0189854Y0162315D02*
X0189854Y0165117D01*
X0188919Y0164183D01*
X0187841Y0163716D02*
X0187374Y0163249D01*
X0185973Y0163249D01*
X0185973Y0162315D02*
X0185973Y0165117D01*
X0187374Y0165117D01*
X0187841Y0164650D01*
X0187841Y0163716D01*
X0186907Y0163249D02*
X0187841Y0162315D01*
X0245732Y0249378D02*
X0247133Y0249378D01*
X0247600Y0249845D01*
X0247600Y0251713D01*
X0247133Y0252180D01*
X0245732Y0252180D01*
X0245732Y0249378D01*
X0248678Y0249378D02*
X0250547Y0249378D01*
X0249613Y0249378D02*
X0249613Y0252180D01*
X0248678Y0251246D01*
X0248919Y0260128D02*
X0248919Y0262930D01*
X0250321Y0262930D01*
X0250788Y0262463D01*
X0250788Y0261529D01*
X0250321Y0261062D01*
X0248919Y0261062D01*
X0249854Y0261062D02*
X0250788Y0260128D01*
X0251866Y0260595D02*
X0252333Y0260128D01*
X0253267Y0260128D01*
X0253734Y0260595D01*
X0253734Y0262463D01*
X0253267Y0262930D01*
X0252333Y0262930D01*
X0251866Y0262463D01*
X0251866Y0261996D01*
X0252333Y0261529D01*
X0253734Y0261529D01*
X0255398Y0019465D02*
X0258202Y0019465D01*
X0258202Y0016114D02*
X0255398Y0016114D01*
X0203375Y0016339D02*
X0203375Y0019193D01*
X0200225Y0019193D02*
X0200225Y0016437D01*
X0200618Y0014666D02*
X0200626Y0014733D01*
X0200638Y0014800D01*
X0200653Y0014866D01*
X0200672Y0014931D01*
X0200695Y0014994D01*
X0200722Y0015057D01*
X0200752Y0015117D01*
X0200785Y0015176D01*
X0200821Y0015233D01*
X0200861Y0015288D01*
X0200904Y0015340D01*
X0200950Y0015390D01*
X0200999Y0015437D01*
X0201050Y0015482D01*
X0201103Y0015523D01*
X0201159Y0015561D01*
X0201217Y0015596D01*
X0201277Y0015627D01*
X0201339Y0015656D01*
X0201402Y0015680D01*
X0201466Y0015701D01*
X0201532Y0015718D01*
X0201598Y0015732D01*
X0201665Y0015741D01*
X0201732Y0015747D01*
X0201800Y0015749D01*
X0201868Y0015747D01*
X0201935Y0015741D01*
X0202002Y0015732D01*
X0202068Y0015718D01*
X0202134Y0015701D01*
X0202198Y0015680D01*
X0202261Y0015656D01*
X0202323Y0015627D01*
X0202383Y0015596D01*
X0202441Y0015561D01*
X0202497Y0015523D01*
X0202550Y0015482D01*
X0202601Y0015437D01*
X0202650Y0015390D01*
X0202696Y0015340D01*
X0202739Y0015288D01*
X0202779Y0015233D01*
X0202815Y0015176D01*
X0202848Y0015117D01*
X0202878Y0015057D01*
X0202905Y0014994D01*
X0202928Y0014931D01*
X0202947Y0014866D01*
X0202962Y0014800D01*
X0202974Y0014733D01*
X0202982Y0014666D01*
D13*
X0204720Y0027809D03*
X0198920Y0027809D03*
X0221420Y0032809D03*
X0227220Y0032809D03*
X0253880Y0027821D03*
X0259680Y0027821D03*
X0204720Y0102809D03*
X0198920Y0102809D03*
X0154720Y0047809D03*
X0148920Y0047809D03*
X0258920Y0122809D03*
X0264720Y0122809D03*
X0259680Y0167821D03*
X0253880Y0167821D03*
X0189680Y0170321D03*
X0183880Y0170321D03*
X0097180Y0162821D03*
X0091380Y0162821D03*
X0258920Y0262809D03*
X0264720Y0262809D03*
D14*
X0259116Y0157795D03*
X0254516Y0157795D03*
X0204084Y0095335D03*
X0199484Y0095335D03*
X0201584Y0077835D03*
X0196984Y0077835D03*
X0149116Y0067795D03*
X0144516Y0067795D03*
X0144084Y0137835D03*
X0139484Y0137835D03*
X0139484Y0145335D03*
X0144084Y0145335D03*
X0144084Y0152835D03*
X0139484Y0152835D03*
X0254516Y0017795D03*
X0259116Y0017795D03*
D15*
X0261603Y0038288D02*
X0252942Y0038288D01*
X0244083Y0038288D02*
X0244083Y0097343D01*
X0286643Y0097343D01*
X0275776Y0097343D01*
X0282706Y0091791D02*
X0282706Y0043524D01*
X0286643Y0038288D02*
X0275776Y0038288D01*
X0286643Y0038288D02*
X0286643Y0097343D01*
X0286643Y0038288D01*
X0244083Y0038288D01*
X0244083Y0043799D02*
X0244083Y0047343D01*
X0244083Y0088288D02*
X0244083Y0091831D01*
X0252942Y0097343D02*
X0261603Y0097343D01*
X0261603Y0178288D02*
X0252942Y0178288D01*
X0244083Y0178288D02*
X0244083Y0237343D01*
X0286643Y0237343D01*
X0275776Y0237343D01*
X0282706Y0231791D02*
X0282706Y0183524D01*
X0286643Y0178288D02*
X0275776Y0178288D01*
X0286643Y0178288D02*
X0286643Y0237343D01*
X0286643Y0178288D01*
X0244083Y0178288D01*
X0244083Y0183799D02*
X0244083Y0187343D01*
X0244083Y0228288D02*
X0244083Y0231831D01*
X0252942Y0237343D02*
X0261603Y0237343D01*
D16*
X0238737Y0228288D02*
X0238739Y0228337D01*
X0238745Y0228387D01*
X0238755Y0228435D01*
X0238768Y0228483D01*
X0238786Y0228529D01*
X0238806Y0228574D01*
X0238831Y0228617D01*
X0238859Y0228658D01*
X0238890Y0228696D01*
X0238924Y0228732D01*
X0238960Y0228765D01*
X0238999Y0228796D01*
X0239041Y0228822D01*
X0239084Y0228846D01*
X0239130Y0228866D01*
X0239176Y0228883D01*
X0239224Y0228895D01*
X0239273Y0228904D01*
X0239322Y0228909D01*
X0239371Y0228910D01*
X0239421Y0228907D01*
X0239470Y0228900D01*
X0239518Y0228889D01*
X0239565Y0228875D01*
X0239611Y0228857D01*
X0239656Y0228835D01*
X0239698Y0228809D01*
X0239738Y0228781D01*
X0239776Y0228749D01*
X0239812Y0228715D01*
X0239844Y0228677D01*
X0239874Y0228637D01*
X0239900Y0228595D01*
X0239922Y0228551D01*
X0239942Y0228506D01*
X0239957Y0228459D01*
X0239969Y0228411D01*
X0239977Y0228362D01*
X0239981Y0228313D01*
X0239981Y0228263D01*
X0239977Y0228214D01*
X0239969Y0228165D01*
X0239957Y0228117D01*
X0239942Y0228070D01*
X0239922Y0228025D01*
X0239900Y0227981D01*
X0239874Y0227939D01*
X0239844Y0227899D01*
X0239812Y0227861D01*
X0239776Y0227827D01*
X0239738Y0227795D01*
X0239698Y0227767D01*
X0239656Y0227741D01*
X0239611Y0227719D01*
X0239565Y0227701D01*
X0239518Y0227687D01*
X0239470Y0227676D01*
X0239421Y0227669D01*
X0239371Y0227666D01*
X0239322Y0227667D01*
X0239273Y0227672D01*
X0239224Y0227681D01*
X0239176Y0227693D01*
X0239130Y0227710D01*
X0239084Y0227730D01*
X0239041Y0227754D01*
X0238999Y0227780D01*
X0238960Y0227811D01*
X0238924Y0227844D01*
X0238890Y0227880D01*
X0238859Y0227918D01*
X0238831Y0227959D01*
X0238806Y0228002D01*
X0238786Y0228047D01*
X0238768Y0228093D01*
X0238755Y0228141D01*
X0238745Y0228189D01*
X0238739Y0228239D01*
X0238737Y0228288D01*
X0238737Y0088288D02*
X0238739Y0088337D01*
X0238745Y0088387D01*
X0238755Y0088435D01*
X0238768Y0088483D01*
X0238786Y0088529D01*
X0238806Y0088574D01*
X0238831Y0088617D01*
X0238859Y0088658D01*
X0238890Y0088696D01*
X0238924Y0088732D01*
X0238960Y0088765D01*
X0238999Y0088796D01*
X0239041Y0088822D01*
X0239084Y0088846D01*
X0239130Y0088866D01*
X0239176Y0088883D01*
X0239224Y0088895D01*
X0239273Y0088904D01*
X0239322Y0088909D01*
X0239371Y0088910D01*
X0239421Y0088907D01*
X0239470Y0088900D01*
X0239518Y0088889D01*
X0239565Y0088875D01*
X0239611Y0088857D01*
X0239656Y0088835D01*
X0239698Y0088809D01*
X0239738Y0088781D01*
X0239776Y0088749D01*
X0239812Y0088715D01*
X0239844Y0088677D01*
X0239874Y0088637D01*
X0239900Y0088595D01*
X0239922Y0088551D01*
X0239942Y0088506D01*
X0239957Y0088459D01*
X0239969Y0088411D01*
X0239977Y0088362D01*
X0239981Y0088313D01*
X0239981Y0088263D01*
X0239977Y0088214D01*
X0239969Y0088165D01*
X0239957Y0088117D01*
X0239942Y0088070D01*
X0239922Y0088025D01*
X0239900Y0087981D01*
X0239874Y0087939D01*
X0239844Y0087899D01*
X0239812Y0087861D01*
X0239776Y0087827D01*
X0239738Y0087795D01*
X0239698Y0087767D01*
X0239656Y0087741D01*
X0239611Y0087719D01*
X0239565Y0087701D01*
X0239518Y0087687D01*
X0239470Y0087676D01*
X0239421Y0087669D01*
X0239371Y0087666D01*
X0239322Y0087667D01*
X0239273Y0087672D01*
X0239224Y0087681D01*
X0239176Y0087693D01*
X0239130Y0087710D01*
X0239084Y0087730D01*
X0239041Y0087754D01*
X0238999Y0087780D01*
X0238960Y0087811D01*
X0238924Y0087844D01*
X0238890Y0087880D01*
X0238859Y0087918D01*
X0238831Y0087959D01*
X0238806Y0088002D01*
X0238786Y0088047D01*
X0238768Y0088093D01*
X0238755Y0088141D01*
X0238745Y0088189D01*
X0238739Y0088239D01*
X0238737Y0088288D01*
D17*
X0259831Y0112815D02*
X0263769Y0110847D01*
X0263769Y0114784D01*
X0259831Y0112815D01*
X0263769Y0250847D02*
X0259831Y0252815D01*
X0263769Y0254784D01*
X0263769Y0250847D01*
D18*
X0268000Y0252815D03*
X0255600Y0252815D03*
X0255600Y0112815D03*
X0268000Y0112815D03*
D19*
X0259600Y0112815D03*
X0259600Y0252815D03*
D20*
X0204500Y0178440D03*
X0199100Y0174640D03*
X0204500Y0170840D03*
X0189100Y0021665D03*
X0194500Y0017865D03*
X0189100Y0014065D03*
D21*
X0195200Y0014317D02*
X0196601Y0014317D01*
X0195901Y0014317D02*
X0195901Y0012215D01*
X0197410Y0012565D02*
X0197760Y0012215D01*
X0198461Y0012215D01*
X0198811Y0012565D01*
X0198811Y0012916D01*
X0198461Y0013266D01*
X0198110Y0013266D01*
X0198461Y0013266D02*
X0198811Y0013616D01*
X0198811Y0013967D01*
X0198461Y0014317D01*
X0197760Y0014317D01*
X0197410Y0013967D01*
X0204448Y0014751D02*
X0206550Y0014751D01*
X0206550Y0016152D01*
X0206550Y0016960D02*
X0206550Y0018362D01*
X0206550Y0019170D02*
X0206550Y0020221D01*
X0206200Y0020571D01*
X0204799Y0020571D01*
X0204448Y0020221D01*
X0204448Y0019170D01*
X0206550Y0019170D01*
X0205499Y0017661D02*
X0205499Y0016960D01*
X0204448Y0016960D02*
X0206550Y0016960D01*
X0204448Y0016960D02*
X0204448Y0018362D01*
X0205149Y0021380D02*
X0204448Y0022081D01*
X0206550Y0022081D01*
X0206550Y0022781D02*
X0206550Y0021380D01*
X0211012Y0025465D02*
X0211012Y0027567D01*
X0212063Y0027567D01*
X0212414Y0027217D01*
X0212414Y0026516D01*
X0212063Y0026166D01*
X0211012Y0026166D01*
X0211713Y0026166D02*
X0212414Y0025465D01*
X0213222Y0025815D02*
X0213573Y0025465D01*
X0214273Y0025465D01*
X0214624Y0025815D01*
X0214624Y0026166D01*
X0214273Y0026516D01*
X0213923Y0026516D01*
X0214273Y0026516D02*
X0214624Y0026866D01*
X0214624Y0027217D01*
X0214273Y0027567D01*
X0213573Y0027567D01*
X0213222Y0027217D01*
X0215432Y0027217D02*
X0215783Y0027567D01*
X0216483Y0027567D01*
X0216833Y0027217D01*
X0216833Y0026866D01*
X0215432Y0025465D01*
X0216833Y0025465D01*
X0221950Y0037028D02*
X0221950Y0039129D01*
X0223001Y0039129D01*
X0223351Y0038779D01*
X0223351Y0038078D01*
X0223001Y0037728D01*
X0221950Y0037728D01*
X0222651Y0037728D02*
X0223351Y0037028D01*
X0224160Y0037378D02*
X0224510Y0037028D01*
X0225211Y0037028D01*
X0225561Y0037378D01*
X0225561Y0037728D01*
X0225211Y0038078D01*
X0224860Y0038078D01*
X0225211Y0038078D02*
X0225561Y0038429D01*
X0225561Y0038779D01*
X0225211Y0039129D01*
X0224510Y0039129D01*
X0224160Y0038779D01*
X0226370Y0038429D02*
X0227070Y0039129D01*
X0227070Y0037028D01*
X0226370Y0037028D02*
X0227771Y0037028D01*
X0234974Y0035085D02*
X0235674Y0035085D01*
X0235324Y0035085D02*
X0235324Y0033333D01*
X0234974Y0032983D01*
X0234624Y0032983D01*
X0234273Y0033333D01*
X0236483Y0034034D02*
X0237884Y0034034D01*
X0237534Y0035085D02*
X0236483Y0034034D01*
X0237534Y0032983D02*
X0237534Y0035085D01*
X0242820Y0027979D02*
X0243871Y0027979D01*
X0244222Y0027629D01*
X0244222Y0026928D01*
X0243871Y0026578D01*
X0242820Y0026578D01*
X0242820Y0025878D02*
X0242820Y0027979D01*
X0243521Y0026578D02*
X0244222Y0025878D01*
X0245030Y0026228D02*
X0245381Y0025878D01*
X0246081Y0025878D01*
X0246431Y0026228D01*
X0246431Y0026578D01*
X0246081Y0026928D01*
X0245731Y0026928D01*
X0246081Y0026928D02*
X0246431Y0027279D01*
X0246431Y0027629D01*
X0246081Y0027979D01*
X0245381Y0027979D01*
X0245030Y0027629D01*
X0247240Y0027629D02*
X0247590Y0027979D01*
X0248291Y0027979D01*
X0248641Y0027629D01*
X0248641Y0027279D01*
X0248291Y0026928D01*
X0248641Y0026578D01*
X0248641Y0026228D01*
X0248291Y0025878D01*
X0247590Y0025878D01*
X0247240Y0026228D01*
X0247941Y0026928D02*
X0248291Y0026928D01*
X0249228Y0018604D02*
X0248178Y0017553D01*
X0249579Y0017553D01*
X0249228Y0016503D02*
X0249228Y0018604D01*
X0246668Y0018604D02*
X0246668Y0016503D01*
X0245968Y0016503D02*
X0247369Y0016503D01*
X0245968Y0017904D02*
X0246668Y0018604D01*
X0245159Y0018254D02*
X0244809Y0018604D01*
X0244108Y0018604D01*
X0243758Y0018254D01*
X0243758Y0016853D01*
X0244108Y0016503D01*
X0244809Y0016503D01*
X0245159Y0016853D01*
X0233811Y0021590D02*
X0232410Y0021590D01*
X0233811Y0022991D01*
X0233811Y0023342D01*
X0233461Y0023692D01*
X0232760Y0023692D01*
X0232410Y0023342D01*
X0231601Y0023692D02*
X0230200Y0023692D01*
X0230901Y0023692D02*
X0230901Y0021590D01*
X0201171Y0032340D02*
X0201171Y0034442D01*
X0200120Y0033391D01*
X0201521Y0033391D01*
X0199311Y0033391D02*
X0197910Y0033391D01*
X0198961Y0034442D01*
X0198961Y0032340D01*
X0197101Y0032340D02*
X0196401Y0033041D01*
X0196751Y0033041D02*
X0195700Y0033041D01*
X0195700Y0032340D02*
X0195700Y0034442D01*
X0196751Y0034442D01*
X0197101Y0034092D01*
X0197101Y0033391D01*
X0196751Y0033041D01*
X0182146Y0027567D02*
X0180745Y0027567D01*
X0180745Y0026516D01*
X0181445Y0026866D01*
X0181796Y0026866D01*
X0182146Y0026516D01*
X0182146Y0025815D01*
X0181796Y0025465D01*
X0181095Y0025465D01*
X0180745Y0025815D01*
X0179936Y0026516D02*
X0178535Y0026516D01*
X0179586Y0027567D01*
X0179586Y0025465D01*
X0177726Y0025465D02*
X0177026Y0026166D01*
X0177376Y0026166D02*
X0176325Y0026166D01*
X0176325Y0025465D02*
X0176325Y0027567D01*
X0177376Y0027567D01*
X0177726Y0027217D01*
X0177726Y0026516D01*
X0177376Y0026166D01*
X0159296Y0041403D02*
X0159296Y0043504D01*
X0158245Y0042453D01*
X0159646Y0042453D01*
X0157436Y0042103D02*
X0157436Y0041753D01*
X0157086Y0041403D01*
X0156385Y0041403D01*
X0156035Y0041753D01*
X0155226Y0041403D02*
X0154526Y0042103D01*
X0154876Y0042103D02*
X0153825Y0042103D01*
X0153825Y0041403D02*
X0153825Y0043504D01*
X0154876Y0043504D01*
X0155226Y0043154D01*
X0155226Y0042453D01*
X0154876Y0042103D01*
X0156035Y0043154D02*
X0156385Y0043504D01*
X0157086Y0043504D01*
X0157436Y0043154D01*
X0157436Y0042804D01*
X0157086Y0042453D01*
X0157436Y0042103D01*
X0157086Y0042453D02*
X0156735Y0042453D01*
X0143983Y0056090D02*
X0143283Y0056090D01*
X0142932Y0056440D01*
X0142932Y0056791D01*
X0143283Y0057141D01*
X0143983Y0057141D01*
X0144333Y0056791D01*
X0144333Y0056440D01*
X0143983Y0056090D01*
X0143983Y0057141D02*
X0144333Y0057491D01*
X0144333Y0057842D01*
X0143983Y0058192D01*
X0143283Y0058192D01*
X0142932Y0057842D01*
X0142932Y0057491D01*
X0143283Y0057141D01*
X0142124Y0057491D02*
X0141773Y0057141D01*
X0142124Y0056791D01*
X0142124Y0056440D01*
X0141773Y0056090D01*
X0141073Y0056090D01*
X0140722Y0056440D01*
X0139914Y0056090D02*
X0139213Y0056791D01*
X0139563Y0056791D02*
X0138513Y0056791D01*
X0138513Y0056090D02*
X0138513Y0058192D01*
X0139563Y0058192D01*
X0139914Y0057842D01*
X0139914Y0057141D01*
X0139563Y0056791D01*
X0140722Y0057842D02*
X0141073Y0058192D01*
X0141773Y0058192D01*
X0142124Y0057842D01*
X0142124Y0057491D01*
X0141773Y0057141D02*
X0141423Y0057141D01*
X0142613Y0071090D02*
X0142263Y0071440D01*
X0142263Y0072842D01*
X0142613Y0073192D01*
X0143313Y0073192D01*
X0143664Y0072842D01*
X0144472Y0072491D02*
X0145173Y0073192D01*
X0145173Y0071090D01*
X0144472Y0071090D02*
X0145874Y0071090D01*
X0146682Y0071440D02*
X0146682Y0071791D01*
X0147033Y0072141D01*
X0147733Y0072141D01*
X0148083Y0071791D01*
X0148083Y0071440D01*
X0147733Y0071090D01*
X0147033Y0071090D01*
X0146682Y0071440D01*
X0147033Y0072141D02*
X0146682Y0072491D01*
X0146682Y0072842D01*
X0147033Y0073192D01*
X0147733Y0073192D01*
X0148083Y0072842D01*
X0148083Y0072491D01*
X0147733Y0072141D01*
X0143664Y0071440D02*
X0143313Y0071090D01*
X0142613Y0071090D01*
X0128083Y0072842D02*
X0126682Y0071440D01*
X0126682Y0071090D01*
X0125874Y0071440D02*
X0125523Y0071090D01*
X0124823Y0071090D01*
X0124472Y0071440D01*
X0123664Y0071090D02*
X0122963Y0071791D01*
X0123313Y0071791D02*
X0122262Y0071791D01*
X0122262Y0071090D02*
X0122262Y0073192D01*
X0123313Y0073192D01*
X0123664Y0072842D01*
X0123664Y0072141D01*
X0123313Y0071791D01*
X0124472Y0072842D02*
X0124823Y0073192D01*
X0125523Y0073192D01*
X0125874Y0072842D01*
X0125874Y0072491D01*
X0125523Y0072141D01*
X0125874Y0071791D01*
X0125874Y0071440D01*
X0125523Y0072141D02*
X0125173Y0072141D01*
X0126682Y0073192D02*
X0128083Y0073192D01*
X0128083Y0072842D01*
X0169003Y0101103D02*
X0169704Y0101103D01*
X0169354Y0101103D02*
X0169354Y0103205D01*
X0169704Y0103205D02*
X0169003Y0103205D01*
X0170477Y0102855D02*
X0170477Y0101454D01*
X0170827Y0101103D01*
X0171528Y0101103D01*
X0171878Y0101454D01*
X0172687Y0101103D02*
X0174088Y0102504D01*
X0174088Y0102855D01*
X0173738Y0103205D01*
X0173037Y0103205D01*
X0172687Y0102855D01*
X0171878Y0102855D02*
X0171528Y0103205D01*
X0170827Y0103205D01*
X0170477Y0102855D01*
X0172687Y0101103D02*
X0174088Y0101103D01*
X0184450Y0108278D02*
X0184450Y0110379D01*
X0185501Y0110379D01*
X0185851Y0110029D01*
X0185851Y0109328D01*
X0185501Y0108978D01*
X0184450Y0108978D01*
X0185151Y0108978D02*
X0185851Y0108278D01*
X0186660Y0109328D02*
X0188061Y0109328D01*
X0188870Y0108628D02*
X0188870Y0110029D01*
X0189220Y0110379D01*
X0189921Y0110379D01*
X0190271Y0110029D01*
X0188870Y0108628D01*
X0189220Y0108278D01*
X0189921Y0108278D01*
X0190271Y0108628D01*
X0190271Y0110029D01*
X0187711Y0110379D02*
X0187711Y0108278D01*
X0186660Y0109328D02*
X0187711Y0110379D01*
X0194137Y0110379D02*
X0194137Y0108278D01*
X0194137Y0108978D02*
X0195188Y0108978D01*
X0195539Y0109328D01*
X0195539Y0110029D01*
X0195188Y0110379D01*
X0194137Y0110379D01*
X0194838Y0108978D02*
X0195539Y0108278D01*
X0196347Y0109328D02*
X0197749Y0109328D01*
X0198557Y0109679D02*
X0199258Y0110379D01*
X0199258Y0108278D01*
X0199958Y0108278D02*
X0198557Y0108278D01*
X0197398Y0108278D02*
X0197398Y0110379D01*
X0196347Y0109328D01*
X0205700Y0109129D02*
X0205700Y0107028D01*
X0205700Y0107728D02*
X0206751Y0107728D01*
X0207101Y0108078D01*
X0207101Y0108779D01*
X0206751Y0109129D01*
X0205700Y0109129D01*
X0206401Y0107728D02*
X0207101Y0107028D01*
X0207910Y0107378D02*
X0208260Y0107028D01*
X0208961Y0107028D01*
X0209311Y0107378D01*
X0209311Y0107728D01*
X0208961Y0108078D01*
X0208610Y0108078D01*
X0208961Y0108078D02*
X0209311Y0108429D01*
X0209311Y0108779D01*
X0208961Y0109129D01*
X0208260Y0109129D01*
X0207910Y0108779D01*
X0210120Y0108779D02*
X0210120Y0108429D01*
X0210470Y0108078D01*
X0211521Y0108078D01*
X0211521Y0107378D02*
X0211521Y0108779D01*
X0211171Y0109129D01*
X0210470Y0109129D01*
X0210120Y0108779D01*
X0210120Y0107378D02*
X0210470Y0107028D01*
X0211171Y0107028D01*
X0211521Y0107378D01*
X0212360Y0095692D02*
X0212360Y0093590D01*
X0211660Y0093590D02*
X0213061Y0093590D01*
X0213870Y0093940D02*
X0214220Y0093590D01*
X0214921Y0093590D01*
X0215271Y0093940D01*
X0215271Y0094641D01*
X0214921Y0094991D01*
X0214570Y0094991D01*
X0213870Y0094641D01*
X0213870Y0095692D01*
X0215271Y0095692D01*
X0212360Y0095692D02*
X0211660Y0094991D01*
X0210851Y0095342D02*
X0210501Y0095692D01*
X0209800Y0095692D01*
X0209450Y0095342D01*
X0209450Y0093940D01*
X0209800Y0093590D01*
X0210501Y0093590D01*
X0210851Y0093940D01*
X0208075Y0079969D02*
X0207724Y0079969D01*
X0207374Y0079619D01*
X0207374Y0078568D01*
X0208075Y0078568D01*
X0208425Y0078918D01*
X0208425Y0079619D01*
X0208075Y0079969D01*
X0206674Y0079268D02*
X0207374Y0078568D01*
X0206674Y0079268D02*
X0206323Y0079969D01*
X0206323Y0077058D02*
X0208425Y0077058D01*
X0208425Y0076358D02*
X0208425Y0077759D01*
X0207024Y0076358D02*
X0206323Y0077058D01*
X0206674Y0075549D02*
X0206323Y0075199D01*
X0206323Y0074498D01*
X0206674Y0074148D01*
X0208075Y0074148D01*
X0208425Y0074498D01*
X0208425Y0075199D01*
X0208075Y0075549D01*
X0189958Y0064129D02*
X0189958Y0063779D01*
X0188557Y0062378D01*
X0188557Y0062028D01*
X0187749Y0062028D02*
X0186347Y0062028D01*
X0187048Y0062028D02*
X0187048Y0064129D01*
X0186347Y0063429D01*
X0185539Y0063779D02*
X0185188Y0064129D01*
X0184488Y0064129D01*
X0184137Y0063779D01*
X0184137Y0062378D01*
X0184488Y0062028D01*
X0185188Y0062028D01*
X0185539Y0062378D01*
X0188557Y0064129D02*
X0189958Y0064129D01*
X0157108Y0112340D02*
X0156408Y0112340D01*
X0156057Y0112690D01*
X0157458Y0114092D01*
X0157458Y0112690D01*
X0157108Y0112340D01*
X0156057Y0112690D02*
X0156057Y0114092D01*
X0156408Y0114442D01*
X0157108Y0114442D01*
X0157458Y0114092D01*
X0155249Y0114092D02*
X0154898Y0114442D01*
X0154198Y0114442D01*
X0153847Y0114092D01*
X0153039Y0114092D02*
X0152688Y0114442D01*
X0151988Y0114442D01*
X0151638Y0114092D01*
X0151638Y0112690D01*
X0151988Y0112340D01*
X0152688Y0112340D01*
X0153039Y0112690D01*
X0153847Y0112340D02*
X0155249Y0113741D01*
X0155249Y0114092D01*
X0155249Y0112340D02*
X0153847Y0112340D01*
X0165388Y0117065D02*
X0165738Y0116715D01*
X0166438Y0116715D01*
X0166789Y0117065D01*
X0167597Y0116715D02*
X0168999Y0116715D01*
X0168298Y0116715D02*
X0168298Y0118817D01*
X0167597Y0118116D01*
X0166789Y0118467D02*
X0166438Y0118817D01*
X0165738Y0118817D01*
X0165388Y0118467D01*
X0165388Y0117065D01*
X0169807Y0117065D02*
X0170158Y0116715D01*
X0170858Y0116715D01*
X0171208Y0117065D01*
X0171208Y0118467D01*
X0170858Y0118817D01*
X0170158Y0118817D01*
X0169807Y0118467D01*
X0169807Y0118116D01*
X0170158Y0117766D01*
X0171208Y0117766D01*
X0211637Y0122965D02*
X0211637Y0125067D01*
X0212688Y0125067D01*
X0213039Y0124717D01*
X0213039Y0124016D01*
X0212688Y0123666D01*
X0211637Y0123666D01*
X0212338Y0123666D02*
X0213039Y0122965D01*
X0213847Y0122965D02*
X0215249Y0124366D01*
X0215249Y0124717D01*
X0214898Y0125067D01*
X0214198Y0125067D01*
X0213847Y0124717D01*
X0213847Y0122965D02*
X0215249Y0122965D01*
X0216057Y0123315D02*
X0216408Y0122965D01*
X0217108Y0122965D01*
X0217458Y0123315D01*
X0217458Y0124717D01*
X0217108Y0125067D01*
X0216408Y0125067D01*
X0216057Y0124717D01*
X0216057Y0124366D01*
X0216408Y0124016D01*
X0217458Y0124016D01*
X0248133Y0122979D02*
X0249184Y0122979D01*
X0249534Y0122629D01*
X0249534Y0121928D01*
X0249184Y0121578D01*
X0248133Y0121578D01*
X0248833Y0121578D02*
X0249534Y0120878D01*
X0250343Y0121228D02*
X0250693Y0120878D01*
X0251394Y0120878D01*
X0251744Y0121228D01*
X0251744Y0121578D01*
X0251394Y0121928D01*
X0251043Y0121928D01*
X0251394Y0121928D02*
X0251744Y0122279D01*
X0251744Y0122629D01*
X0251394Y0122979D01*
X0250693Y0122979D01*
X0250343Y0122629D01*
X0252553Y0122629D02*
X0252903Y0122979D01*
X0253603Y0122979D01*
X0253954Y0122629D01*
X0252553Y0121228D01*
X0252903Y0120878D01*
X0253603Y0120878D01*
X0253954Y0121228D01*
X0253954Y0122629D01*
X0252553Y0122629D02*
X0252553Y0121228D01*
X0248133Y0120878D02*
X0248133Y0122979D01*
X0248206Y0112229D02*
X0247155Y0112229D01*
X0247155Y0110128D01*
X0248206Y0110128D01*
X0248556Y0110478D01*
X0248556Y0111879D01*
X0248206Y0112229D01*
X0249365Y0111879D02*
X0249715Y0112229D01*
X0250416Y0112229D01*
X0250766Y0111879D01*
X0250766Y0111529D01*
X0249365Y0110128D01*
X0250766Y0110128D01*
D22*
X0226750Y0020515D03*
X0222950Y0015115D03*
X0230550Y0015115D03*
D23*
X0171800Y0066112D02*
X0155097Y0082815D01*
X0171800Y0099518D01*
X0188503Y0082815D01*
X0171800Y0066112D01*
X0187111Y0081423D02*
X0187111Y0084207D01*
D24*
X0190893Y0083929D02*
X0190895Y0083973D01*
X0190901Y0084017D01*
X0190911Y0084060D01*
X0190924Y0084102D01*
X0190942Y0084142D01*
X0190963Y0084181D01*
X0190987Y0084218D01*
X0191014Y0084253D01*
X0191045Y0084285D01*
X0191078Y0084314D01*
X0191114Y0084340D01*
X0191152Y0084362D01*
X0191192Y0084381D01*
X0191233Y0084397D01*
X0191276Y0084409D01*
X0191319Y0084417D01*
X0191363Y0084421D01*
X0191407Y0084421D01*
X0191451Y0084417D01*
X0191494Y0084409D01*
X0191537Y0084397D01*
X0191578Y0084381D01*
X0191618Y0084362D01*
X0191656Y0084340D01*
X0191692Y0084314D01*
X0191725Y0084285D01*
X0191756Y0084253D01*
X0191783Y0084218D01*
X0191807Y0084181D01*
X0191828Y0084142D01*
X0191846Y0084102D01*
X0191859Y0084060D01*
X0191869Y0084017D01*
X0191875Y0083973D01*
X0191877Y0083929D01*
X0191875Y0083885D01*
X0191869Y0083841D01*
X0191859Y0083798D01*
X0191846Y0083756D01*
X0191828Y0083716D01*
X0191807Y0083677D01*
X0191783Y0083640D01*
X0191756Y0083605D01*
X0191725Y0083573D01*
X0191692Y0083544D01*
X0191656Y0083518D01*
X0191618Y0083496D01*
X0191578Y0083477D01*
X0191537Y0083461D01*
X0191494Y0083449D01*
X0191451Y0083441D01*
X0191407Y0083437D01*
X0191363Y0083437D01*
X0191319Y0083441D01*
X0191276Y0083449D01*
X0191233Y0083461D01*
X0191192Y0083477D01*
X0191152Y0083496D01*
X0191114Y0083518D01*
X0191078Y0083544D01*
X0191045Y0083573D01*
X0191014Y0083605D01*
X0190987Y0083640D01*
X0190963Y0083677D01*
X0190942Y0083716D01*
X0190924Y0083756D01*
X0190911Y0083798D01*
X0190901Y0083841D01*
X0190895Y0083885D01*
X0190893Y0083929D01*
D25*
X0166780Y0108000D03*
X0166780Y0112600D03*
X0153030Y0107600D03*
X0153030Y0103000D03*
X0184320Y0057631D03*
X0184320Y0053031D03*
D26*
X0200717Y0021063D02*
X0200719Y0020999D01*
X0200725Y0020935D01*
X0200734Y0020871D01*
X0200747Y0020809D01*
X0200764Y0020747D01*
X0200785Y0020686D01*
X0200809Y0020626D01*
X0200837Y0020568D01*
X0200867Y0020512D01*
X0200902Y0020458D01*
X0200939Y0020406D01*
X0200980Y0020356D01*
X0201023Y0020309D01*
X0201069Y0020264D01*
X0201118Y0020222D01*
X0201169Y0020183D01*
X0201222Y0020147D01*
X0201277Y0020115D01*
X0201334Y0020085D01*
X0201393Y0020059D01*
X0201453Y0020037D01*
X0201515Y0020018D01*
X0201577Y0020003D01*
X0201640Y0019992D01*
X0201704Y0019984D01*
X0201768Y0019980D01*
X0201832Y0019980D01*
X0201896Y0019984D01*
X0201960Y0019992D01*
X0202023Y0020003D01*
X0202085Y0020018D01*
X0202147Y0020037D01*
X0202207Y0020059D01*
X0202266Y0020085D01*
X0202323Y0020115D01*
X0202378Y0020147D01*
X0202431Y0020183D01*
X0202482Y0020222D01*
X0202531Y0020264D01*
X0202577Y0020309D01*
X0202620Y0020356D01*
X0202661Y0020406D01*
X0202698Y0020458D01*
X0202733Y0020512D01*
X0202763Y0020568D01*
X0202791Y0020626D01*
X0202815Y0020686D01*
X0202836Y0020747D01*
X0202853Y0020809D01*
X0202866Y0020871D01*
X0202875Y0020935D01*
X0202881Y0020999D01*
X0202883Y0021063D01*
X0202883Y0015354D02*
X0202885Y0015388D01*
X0202891Y0015422D01*
X0202901Y0015455D01*
X0202914Y0015486D01*
X0202932Y0015516D01*
X0202952Y0015544D01*
X0202976Y0015569D01*
X0203002Y0015591D01*
X0203030Y0015609D01*
X0203061Y0015625D01*
X0203093Y0015637D01*
X0203127Y0015645D01*
X0203161Y0015649D01*
X0203195Y0015649D01*
X0203229Y0015645D01*
X0203263Y0015637D01*
X0203295Y0015625D01*
X0203325Y0015609D01*
X0203354Y0015591D01*
X0203380Y0015569D01*
X0203404Y0015544D01*
X0203424Y0015516D01*
X0203442Y0015486D01*
X0203455Y0015455D01*
X0203465Y0015422D01*
X0203471Y0015388D01*
X0203473Y0015354D01*
X0203471Y0015320D01*
X0203465Y0015286D01*
X0203455Y0015253D01*
X0203442Y0015222D01*
X0203424Y0015192D01*
X0203404Y0015164D01*
X0203380Y0015139D01*
X0203354Y0015117D01*
X0203326Y0015099D01*
X0203295Y0015083D01*
X0203263Y0015071D01*
X0203229Y0015063D01*
X0203195Y0015059D01*
X0203161Y0015059D01*
X0203127Y0015063D01*
X0203093Y0015071D01*
X0203061Y0015083D01*
X0203030Y0015099D01*
X0203002Y0015117D01*
X0202976Y0015139D01*
X0202952Y0015164D01*
X0202932Y0015192D01*
X0202914Y0015222D01*
X0202901Y0015253D01*
X0202891Y0015286D01*
X0202885Y0015320D01*
X0202883Y0015354D01*
D27*
X0203178Y0014764D03*
D28*
X0202784Y0015551D03*
D29*
X0203473Y0015699D03*
D30*
X0200422Y0015059D03*
D31*
X0201800Y0015994D03*
D32*
X0200422Y0020177D03*
X0203178Y0020177D03*
D33*
X0201800Y0019636D03*
D34*
X0202686Y0020177D03*
X0200914Y0020177D03*
D35*
X0201800Y0017323D03*
M02*
