G75*
%MOIN*%
%OFA0B0*%
%FSLAX25Y25*%
%IPPOS*%
%LPD*%
%AMOC8*
5,1,8,0,0,1.08239X$1,22.5*
%
%ADD10C,0.00600*%
%ADD11C,0.00300*%
%ADD12C,0.02000*%
%ADD13C,0.00400*%
%ADD14R,0.05512X0.02559*%
%ADD15R,0.02559X0.05512*%
%ADD16C,0.00394*%
%ADD17C,0.00984*%
%ADD18R,0.03740X0.01969*%
%ADD19R,0.01969X0.03740*%
D10*
X0043800Y0049315D02*
X0054200Y0049315D01*
X0056700Y0049315D02*
X0067200Y0049315D01*
X0067200Y0060415D01*
X0066700Y0049815D02*
X0044300Y0049815D01*
X0044300Y0261615D01*
X0066700Y0261615D01*
X0066700Y0049815D01*
X0043800Y0049315D02*
X0043800Y0060415D01*
X0100186Y0069065D02*
X0103414Y0069065D01*
X0103414Y0074065D02*
X0100186Y0074065D01*
X0100186Y0077815D02*
X0103414Y0077815D01*
X0103414Y0082815D02*
X0100186Y0082815D01*
X0125186Y0080315D02*
X0128414Y0080315D01*
X0128414Y0085315D02*
X0125186Y0085315D01*
X0125186Y0090315D02*
X0128414Y0090315D01*
X0128414Y0095315D02*
X0125186Y0095315D01*
X0125186Y0100315D02*
X0128414Y0100315D01*
X0128414Y0105315D02*
X0125186Y0105315D01*
X0125186Y0108440D02*
X0128414Y0108440D01*
X0128414Y0113440D02*
X0125186Y0113440D01*
X0125186Y0117190D02*
X0128414Y0117190D01*
X0128414Y0122190D02*
X0125186Y0122190D01*
X0125186Y0125315D02*
X0128414Y0125315D01*
X0128414Y0130315D02*
X0125186Y0130315D01*
X0106800Y0131201D02*
X0106800Y0134429D01*
X0101800Y0134429D02*
X0101800Y0131201D01*
X0099300Y0131201D02*
X0099300Y0134429D01*
X0094300Y0134429D02*
X0094300Y0131201D01*
X0084300Y0146201D02*
X0084300Y0149429D01*
X0079300Y0149429D02*
X0079300Y0146201D01*
X0092686Y0150315D02*
X0095914Y0150315D01*
X0095914Y0155315D02*
X0092686Y0155315D01*
X0084300Y0166201D02*
X0084300Y0169429D01*
X0079300Y0169429D02*
X0079300Y0166201D01*
X0139300Y0181201D02*
X0139300Y0184429D01*
X0144300Y0184429D02*
X0144300Y0181201D01*
X0149300Y0181201D02*
X0149300Y0184429D01*
X0154300Y0184429D02*
X0154300Y0181201D01*
X0164300Y0181201D02*
X0164300Y0184429D01*
X0169300Y0184429D02*
X0169300Y0181201D01*
X0174300Y0181201D02*
X0174300Y0184429D01*
X0179300Y0184429D02*
X0179300Y0181201D01*
X0144300Y0206201D02*
X0144300Y0209429D01*
X0139300Y0209429D02*
X0139300Y0206201D01*
X0194300Y0256201D02*
X0194300Y0259429D01*
X0199300Y0259429D02*
X0199300Y0256201D01*
X0210186Y0255315D02*
X0213414Y0255315D01*
X0213414Y0250315D02*
X0210186Y0250315D01*
X0210186Y0245315D02*
X0213414Y0245315D01*
X0213414Y0240315D02*
X0210186Y0240315D01*
X0210186Y0260315D02*
X0213414Y0260315D01*
X0213414Y0265315D02*
X0210186Y0265315D01*
X0071600Y0247115D02*
X0071524Y0247119D01*
X0071448Y0247127D01*
X0071372Y0247139D01*
X0071298Y0247154D01*
X0071224Y0247174D01*
X0071151Y0247197D01*
X0071080Y0247224D01*
X0071010Y0247254D01*
X0070942Y0247288D01*
X0070875Y0247326D01*
X0070811Y0247367D01*
X0070748Y0247411D01*
X0070688Y0247458D01*
X0070631Y0247508D01*
X0070576Y0247561D01*
X0070524Y0247617D01*
X0070475Y0247675D01*
X0070429Y0247736D01*
X0070386Y0247799D01*
X0070346Y0247864D01*
X0070309Y0247931D01*
X0070277Y0248000D01*
X0070247Y0248070D01*
X0070221Y0248142D01*
X0070199Y0248215D01*
X0070200Y0249015D02*
X0070224Y0249086D01*
X0070252Y0249157D01*
X0070283Y0249225D01*
X0070318Y0249292D01*
X0070356Y0249357D01*
X0070397Y0249420D01*
X0070442Y0249481D01*
X0070489Y0249539D01*
X0070540Y0249595D01*
X0070593Y0249648D01*
X0070649Y0249699D01*
X0070708Y0249746D01*
X0070769Y0249791D01*
X0070832Y0249832D01*
X0070897Y0249870D01*
X0070964Y0249905D01*
X0071032Y0249936D01*
X0071103Y0249963D01*
X0071174Y0249987D01*
X0071247Y0250007D01*
X0071320Y0250024D01*
X0071395Y0250036D01*
X0071469Y0250045D01*
X0071545Y0250050D01*
X0071620Y0250051D01*
X0071695Y0250048D01*
X0071770Y0250041D01*
X0071845Y0250031D01*
X0071919Y0250017D01*
X0071992Y0249998D01*
X0072064Y0249977D01*
X0072135Y0249951D01*
X0072205Y0249922D01*
X0072273Y0249889D01*
X0072339Y0249853D01*
X0072403Y0249814D01*
X0072465Y0249771D01*
X0072525Y0249725D01*
X0072582Y0249677D01*
X0072637Y0249625D01*
X0072689Y0249570D01*
X0072739Y0249513D01*
X0072785Y0249454D01*
X0072828Y0249392D01*
X0072868Y0249328D01*
X0072904Y0249262D01*
X0072938Y0249194D01*
X0072967Y0249125D01*
X0072993Y0249054D01*
X0073016Y0248982D01*
X0073034Y0248909D01*
X0073049Y0248836D01*
X0073060Y0248761D01*
X0073067Y0248686D01*
X0073071Y0248611D01*
X0073070Y0248535D01*
X0073066Y0248460D01*
X0073058Y0248385D01*
X0073046Y0248311D01*
X0073030Y0248237D01*
X0073010Y0248164D01*
X0072987Y0248093D01*
X0072960Y0248022D01*
X0072929Y0247953D01*
X0072895Y0247886D01*
X0072858Y0247821D01*
X0072817Y0247757D01*
X0072773Y0247696D01*
X0072726Y0247637D01*
X0072676Y0247581D01*
X0072623Y0247527D01*
X0072567Y0247476D01*
X0072509Y0247428D01*
X0072449Y0247383D01*
X0072386Y0247341D01*
X0072321Y0247303D01*
X0072255Y0247268D01*
X0072186Y0247236D01*
X0072117Y0247208D01*
X0072045Y0247183D01*
X0071973Y0247162D01*
X0071899Y0247145D01*
X0071825Y0247132D01*
X0071751Y0247122D01*
X0071675Y0247117D01*
X0071600Y0247115D01*
X0067200Y0251015D02*
X0067200Y0262115D01*
X0043800Y0262115D01*
X0043800Y0251015D01*
X0207686Y0043440D02*
X0210914Y0043440D01*
X0210914Y0038440D02*
X0207686Y0038440D01*
X0207686Y0035315D02*
X0210914Y0035315D01*
X0210914Y0030315D02*
X0207686Y0030315D01*
D11*
X0207594Y0028292D02*
X0206894Y0028292D01*
X0206544Y0027942D01*
X0206544Y0027591D01*
X0206894Y0027241D01*
X0206544Y0026891D01*
X0206544Y0026540D01*
X0206894Y0026190D01*
X0207594Y0026190D01*
X0207945Y0026540D01*
X0208753Y0026190D02*
X0209454Y0026891D01*
X0209104Y0026891D02*
X0210155Y0026891D01*
X0210155Y0026190D02*
X0210155Y0028292D01*
X0209104Y0028292D01*
X0208753Y0027942D01*
X0208753Y0027241D01*
X0209104Y0026891D01*
X0207945Y0027942D02*
X0207594Y0028292D01*
X0207244Y0027241D02*
X0206894Y0027241D01*
X0205735Y0027241D02*
X0205034Y0027591D01*
X0204684Y0027591D01*
X0204334Y0027241D01*
X0204334Y0026540D01*
X0204684Y0026190D01*
X0205385Y0026190D01*
X0205735Y0026540D01*
X0205735Y0027241D02*
X0205735Y0028292D01*
X0204334Y0028292D01*
X0204059Y0044628D02*
X0203709Y0044978D01*
X0203709Y0045328D01*
X0204059Y0045678D01*
X0205110Y0045678D01*
X0205110Y0044978D01*
X0204760Y0044628D01*
X0204059Y0044628D01*
X0205110Y0045678D02*
X0204409Y0046379D01*
X0203709Y0046729D01*
X0205919Y0046379D02*
X0205919Y0046029D01*
X0206269Y0045678D01*
X0205919Y0045328D01*
X0205919Y0044978D01*
X0206269Y0044628D01*
X0206969Y0044628D01*
X0207320Y0044978D01*
X0208128Y0044628D02*
X0208829Y0045328D01*
X0208479Y0045328D02*
X0209530Y0045328D01*
X0209530Y0044628D02*
X0209530Y0046729D01*
X0208479Y0046729D01*
X0208128Y0046379D01*
X0208128Y0045678D01*
X0208479Y0045328D01*
X0207320Y0046379D02*
X0206969Y0046729D01*
X0206269Y0046729D01*
X0205919Y0046379D01*
X0206269Y0045678D02*
X0206619Y0045678D01*
X0139775Y0082340D02*
X0139775Y0084442D01*
X0138724Y0084442D01*
X0138374Y0084092D01*
X0138374Y0083391D01*
X0138724Y0083041D01*
X0139775Y0083041D01*
X0139074Y0083041D02*
X0138374Y0082340D01*
X0137565Y0082690D02*
X0137215Y0082340D01*
X0136514Y0082340D01*
X0136164Y0082690D01*
X0136164Y0083391D01*
X0136514Y0083741D01*
X0136865Y0083741D01*
X0137565Y0083391D01*
X0137565Y0084442D01*
X0136164Y0084442D01*
X0135355Y0084092D02*
X0135005Y0084442D01*
X0134304Y0084442D01*
X0133954Y0084092D01*
X0133954Y0083741D01*
X0134304Y0083391D01*
X0133954Y0083041D01*
X0133954Y0082690D01*
X0134304Y0082340D01*
X0135005Y0082340D01*
X0135355Y0082690D01*
X0134655Y0083391D02*
X0134304Y0083391D01*
X0134579Y0091090D02*
X0135980Y0091090D01*
X0134579Y0092491D01*
X0134579Y0092842D01*
X0134929Y0093192D01*
X0135630Y0093192D01*
X0135980Y0092842D01*
X0136789Y0093192D02*
X0138190Y0093192D01*
X0138190Y0092141D01*
X0137490Y0092491D01*
X0137139Y0092491D01*
X0136789Y0092141D01*
X0136789Y0091440D01*
X0137139Y0091090D01*
X0137840Y0091090D01*
X0138190Y0091440D01*
X0138999Y0091090D02*
X0139699Y0091791D01*
X0139349Y0091791D02*
X0140400Y0091791D01*
X0140400Y0091090D02*
X0140400Y0093192D01*
X0139349Y0093192D01*
X0138999Y0092842D01*
X0138999Y0092141D01*
X0139349Y0091791D01*
X0138999Y0101715D02*
X0139699Y0102416D01*
X0139349Y0102416D02*
X0140400Y0102416D01*
X0140400Y0101715D02*
X0140400Y0103817D01*
X0139349Y0103817D01*
X0138999Y0103467D01*
X0138999Y0102766D01*
X0139349Y0102416D01*
X0138190Y0102766D02*
X0137490Y0103116D01*
X0137139Y0103116D01*
X0136789Y0102766D01*
X0136789Y0102065D01*
X0137139Y0101715D01*
X0137840Y0101715D01*
X0138190Y0102065D01*
X0138190Y0102766D02*
X0138190Y0103817D01*
X0136789Y0103817D01*
X0135980Y0103116D02*
X0135280Y0103817D01*
X0135280Y0101715D01*
X0135980Y0101715D02*
X0134579Y0101715D01*
X0134929Y0109840D02*
X0135630Y0109840D01*
X0135980Y0110190D01*
X0134579Y0111592D01*
X0134579Y0110190D01*
X0134929Y0109840D01*
X0135980Y0110190D02*
X0135980Y0111592D01*
X0135630Y0111942D01*
X0134929Y0111942D01*
X0134579Y0111592D01*
X0136789Y0111942D02*
X0138190Y0111942D01*
X0138190Y0110891D01*
X0137490Y0111241D01*
X0137139Y0111241D01*
X0136789Y0110891D01*
X0136789Y0110190D01*
X0137139Y0109840D01*
X0137840Y0109840D01*
X0138190Y0110190D01*
X0138999Y0109840D02*
X0139699Y0110541D01*
X0139349Y0110541D02*
X0140400Y0110541D01*
X0140400Y0109840D02*
X0140400Y0111942D01*
X0139349Y0111942D01*
X0138999Y0111592D01*
X0138999Y0110891D01*
X0139349Y0110541D01*
X0138999Y0118590D02*
X0139699Y0119291D01*
X0139349Y0119291D02*
X0140400Y0119291D01*
X0140400Y0118590D02*
X0140400Y0120692D01*
X0139349Y0120692D01*
X0138999Y0120342D01*
X0138999Y0119641D01*
X0139349Y0119291D01*
X0138190Y0119641D02*
X0136789Y0119641D01*
X0135980Y0119991D02*
X0135630Y0119641D01*
X0134579Y0119641D01*
X0134579Y0120342D02*
X0134929Y0120692D01*
X0135630Y0120692D01*
X0135980Y0120342D01*
X0135980Y0119991D01*
X0135980Y0118940D02*
X0135630Y0118590D01*
X0134929Y0118590D01*
X0134579Y0118940D01*
X0134579Y0120342D01*
X0137139Y0120692D02*
X0138190Y0119641D01*
X0137139Y0118590D02*
X0137139Y0120692D01*
X0137139Y0126715D02*
X0137139Y0128817D01*
X0138190Y0127766D01*
X0136789Y0127766D01*
X0135980Y0128116D02*
X0135980Y0128467D01*
X0135630Y0128817D01*
X0134929Y0128817D01*
X0134579Y0128467D01*
X0134579Y0128116D01*
X0134929Y0127766D01*
X0135630Y0127766D01*
X0135980Y0128116D01*
X0135630Y0127766D02*
X0135980Y0127416D01*
X0135980Y0127065D01*
X0135630Y0126715D01*
X0134929Y0126715D01*
X0134579Y0127065D01*
X0134579Y0127416D01*
X0134929Y0127766D01*
X0138999Y0127766D02*
X0139349Y0127416D01*
X0140400Y0127416D01*
X0139699Y0127416D02*
X0138999Y0126715D01*
X0138999Y0127766D02*
X0138999Y0128467D01*
X0139349Y0128817D01*
X0140400Y0128817D01*
X0140400Y0126715D01*
X0107655Y0140565D02*
X0107655Y0142667D01*
X0106604Y0142667D01*
X0106253Y0142317D01*
X0106253Y0141616D01*
X0106604Y0141266D01*
X0107655Y0141266D01*
X0106954Y0141266D02*
X0106253Y0140565D01*
X0105445Y0141616D02*
X0104044Y0141616D01*
X0103235Y0140915D02*
X0103235Y0140565D01*
X0103235Y0140915D02*
X0101834Y0142317D01*
X0101834Y0142667D01*
X0103235Y0142667D01*
X0104394Y0142667D02*
X0104394Y0140565D01*
X0105445Y0141616D02*
X0104394Y0142667D01*
X0098280Y0142667D02*
X0098280Y0140565D01*
X0098280Y0141266D02*
X0097229Y0141266D01*
X0096878Y0141616D01*
X0096878Y0142317D01*
X0097229Y0142667D01*
X0098280Y0142667D01*
X0097579Y0141266D02*
X0096878Y0140565D01*
X0096070Y0141616D02*
X0094669Y0141616D01*
X0093860Y0141616D02*
X0092809Y0141616D01*
X0092459Y0141266D01*
X0092459Y0140915D01*
X0092809Y0140565D01*
X0093510Y0140565D01*
X0093860Y0140915D01*
X0093860Y0141616D01*
X0093159Y0142317D01*
X0092459Y0142667D01*
X0095019Y0142667D02*
X0095019Y0140565D01*
X0096070Y0141616D02*
X0095019Y0142667D01*
X0095934Y0086729D02*
X0096635Y0086729D01*
X0096985Y0086379D01*
X0097794Y0085678D02*
X0099195Y0085678D01*
X0098144Y0086729D01*
X0098144Y0084628D01*
X0096985Y0084628D02*
X0095584Y0086029D01*
X0095584Y0086379D01*
X0095934Y0086729D01*
X0095584Y0084628D02*
X0096985Y0084628D01*
X0100003Y0084628D02*
X0100704Y0085328D01*
X0100354Y0085328D02*
X0101405Y0085328D01*
X0101405Y0084628D02*
X0101405Y0086729D01*
X0100354Y0086729D01*
X0100003Y0086379D01*
X0100003Y0085678D01*
X0100354Y0085328D01*
X0101291Y0065792D02*
X0100941Y0065442D01*
X0100941Y0064741D01*
X0101291Y0064391D01*
X0102342Y0064391D01*
X0101642Y0064391D02*
X0100941Y0063690D01*
X0100132Y0064741D02*
X0099081Y0065792D01*
X0099081Y0063690D01*
X0098731Y0064741D02*
X0100132Y0064741D01*
X0101291Y0065792D02*
X0102342Y0065792D01*
X0102342Y0063690D01*
X0097922Y0064040D02*
X0097572Y0063690D01*
X0096872Y0063690D01*
X0096521Y0064040D01*
X0096521Y0064391D01*
X0096872Y0064741D01*
X0097222Y0064741D01*
X0096872Y0064741D02*
X0096521Y0065091D01*
X0096521Y0065442D01*
X0096872Y0065792D01*
X0097572Y0065792D01*
X0097922Y0065442D01*
X0066450Y0064281D02*
X0066450Y0062713D01*
X0065666Y0061929D01*
X0064882Y0061929D01*
X0064098Y0062713D01*
X0064098Y0065065D01*
X0065666Y0065065D01*
X0066450Y0064281D01*
X0066450Y0062713D01*
X0065666Y0061929D01*
X0064882Y0061929D01*
X0064098Y0062713D01*
X0064098Y0065065D01*
X0062530Y0063497D01*
X0061746Y0061929D01*
X0062530Y0063497D01*
X0064098Y0065065D01*
X0065666Y0065065D01*
X0066450Y0064281D01*
X0065666Y0060461D02*
X0062530Y0060461D01*
X0061746Y0059677D01*
X0061746Y0058109D01*
X0062530Y0057325D01*
X0065666Y0060461D01*
X0066450Y0059677D01*
X0066450Y0058109D01*
X0065666Y0057325D01*
X0062530Y0057325D01*
X0065666Y0060461D01*
X0066450Y0059677D01*
X0066450Y0058109D01*
X0065666Y0057325D01*
X0062530Y0057325D01*
X0061746Y0058109D01*
X0061746Y0059677D01*
X0062530Y0060461D01*
X0065666Y0060461D01*
X0049150Y0059625D02*
X0049150Y0062761D01*
X0046014Y0059625D01*
X0045230Y0059625D01*
X0044446Y0060409D01*
X0044446Y0061977D01*
X0045230Y0062761D01*
X0044446Y0061977D01*
X0044446Y0060409D01*
X0045230Y0059625D01*
X0046014Y0059625D01*
X0049150Y0062761D01*
X0049150Y0059625D01*
X0048366Y0058157D02*
X0045230Y0058157D01*
X0044446Y0057373D01*
X0044446Y0055805D01*
X0045230Y0055021D01*
X0048366Y0058157D01*
X0049150Y0057373D01*
X0049150Y0055805D01*
X0048366Y0055021D01*
X0045230Y0055021D01*
X0048366Y0058157D01*
X0049150Y0057373D01*
X0049150Y0055805D01*
X0048366Y0055021D01*
X0045230Y0055021D01*
X0044446Y0055805D01*
X0044446Y0057373D01*
X0045230Y0058157D01*
X0048366Y0058157D01*
X0049150Y0064229D02*
X0049150Y0067365D01*
X0049150Y0064229D01*
X0049150Y0065797D02*
X0044446Y0065797D01*
X0046014Y0067365D01*
X0044446Y0065797D01*
X0049150Y0065797D01*
X0049150Y0247425D02*
X0049150Y0250561D01*
X0049150Y0247425D01*
X0049150Y0248993D02*
X0044446Y0248993D01*
X0046014Y0250561D01*
X0044446Y0248993D01*
X0049150Y0248993D01*
X0048366Y0252029D02*
X0047582Y0252029D01*
X0046798Y0252813D01*
X0046798Y0255165D01*
X0048366Y0255165D01*
X0049150Y0254381D01*
X0049150Y0252813D01*
X0048366Y0252029D01*
X0047582Y0252029D01*
X0046798Y0252813D01*
X0046798Y0255165D01*
X0045230Y0253597D01*
X0044446Y0252029D01*
X0045230Y0253597D01*
X0046798Y0255165D01*
X0048366Y0255165D01*
X0049150Y0254381D01*
X0049150Y0252813D01*
X0048366Y0252029D01*
X0061746Y0251297D02*
X0066450Y0251297D01*
X0061746Y0251297D01*
X0063314Y0252865D01*
X0061746Y0251297D01*
X0066450Y0252865D02*
X0066450Y0249729D01*
X0066450Y0252865D01*
D12*
X0071600Y0250115D02*
X0071524Y0250113D01*
X0071448Y0250107D01*
X0071373Y0250098D01*
X0071298Y0250084D01*
X0071224Y0250067D01*
X0071151Y0250046D01*
X0071079Y0250022D01*
X0071008Y0249993D01*
X0070939Y0249962D01*
X0070872Y0249927D01*
X0070807Y0249888D01*
X0070743Y0249846D01*
X0070682Y0249801D01*
X0070623Y0249753D01*
X0070567Y0249702D01*
X0070513Y0249648D01*
X0070462Y0249592D01*
X0070414Y0249533D01*
X0070369Y0249472D01*
X0070327Y0249408D01*
X0070288Y0249343D01*
X0070253Y0249276D01*
X0070222Y0249207D01*
X0070193Y0249136D01*
X0070169Y0249064D01*
X0070148Y0248991D01*
X0070131Y0248917D01*
X0070117Y0248842D01*
X0070108Y0248767D01*
X0070102Y0248691D01*
X0070100Y0248615D01*
X0070102Y0248539D01*
X0070108Y0248463D01*
X0070117Y0248388D01*
X0070131Y0248313D01*
X0070148Y0248239D01*
X0070169Y0248166D01*
X0070193Y0248094D01*
X0070222Y0248023D01*
X0070253Y0247954D01*
X0070288Y0247887D01*
X0070327Y0247822D01*
X0070369Y0247758D01*
X0070414Y0247697D01*
X0070462Y0247638D01*
X0070513Y0247582D01*
X0070567Y0247528D01*
X0070623Y0247477D01*
X0070682Y0247429D01*
X0070743Y0247384D01*
X0070807Y0247342D01*
X0070872Y0247303D01*
X0070939Y0247268D01*
X0071008Y0247237D01*
X0071079Y0247208D01*
X0071151Y0247184D01*
X0071224Y0247163D01*
X0071298Y0247146D01*
X0071373Y0247132D01*
X0071448Y0247123D01*
X0071524Y0247117D01*
X0071600Y0247115D01*
X0071676Y0247117D01*
X0071752Y0247123D01*
X0071827Y0247132D01*
X0071902Y0247146D01*
X0071976Y0247163D01*
X0072049Y0247184D01*
X0072121Y0247208D01*
X0072192Y0247237D01*
X0072261Y0247268D01*
X0072328Y0247303D01*
X0072393Y0247342D01*
X0072457Y0247384D01*
X0072518Y0247429D01*
X0072577Y0247477D01*
X0072633Y0247528D01*
X0072687Y0247582D01*
X0072738Y0247638D01*
X0072786Y0247697D01*
X0072831Y0247758D01*
X0072873Y0247822D01*
X0072912Y0247887D01*
X0072947Y0247954D01*
X0072978Y0248023D01*
X0073007Y0248094D01*
X0073031Y0248166D01*
X0073052Y0248239D01*
X0073069Y0248313D01*
X0073083Y0248388D01*
X0073092Y0248463D01*
X0073098Y0248539D01*
X0073100Y0248615D01*
X0073098Y0248691D01*
X0073092Y0248767D01*
X0073083Y0248842D01*
X0073069Y0248917D01*
X0073052Y0248991D01*
X0073031Y0249064D01*
X0073007Y0249136D01*
X0072978Y0249207D01*
X0072947Y0249276D01*
X0072912Y0249343D01*
X0072873Y0249408D01*
X0072831Y0249472D01*
X0072786Y0249533D01*
X0072738Y0249592D01*
X0072687Y0249648D01*
X0072633Y0249702D01*
X0072577Y0249753D01*
X0072518Y0249801D01*
X0072457Y0249846D01*
X0072393Y0249888D01*
X0072328Y0249927D01*
X0072261Y0249962D01*
X0072192Y0249993D01*
X0072121Y0250022D01*
X0072049Y0250046D01*
X0071976Y0250067D01*
X0071902Y0250084D01*
X0071827Y0250098D01*
X0071752Y0250107D01*
X0071676Y0250113D01*
X0071600Y0250115D01*
D13*
X0138681Y0218630D02*
X0138681Y0215828D01*
X0138214Y0217229D02*
X0140082Y0217229D01*
X0138681Y0218630D01*
X0142094Y0218630D02*
X0142094Y0215828D01*
X0143028Y0215828D02*
X0141160Y0215828D01*
X0143028Y0217696D02*
X0142094Y0218630D01*
X0144107Y0218163D02*
X0144107Y0217229D01*
X0144574Y0216762D01*
X0145975Y0216762D01*
X0145041Y0216762D02*
X0144107Y0215828D01*
X0145975Y0215828D02*
X0145975Y0218630D01*
X0144574Y0218630D01*
X0144107Y0218163D01*
X0159598Y0212692D02*
X0161466Y0212692D01*
X0161466Y0211291D01*
X0160532Y0211758D01*
X0160065Y0211758D01*
X0159598Y0211291D01*
X0159598Y0210357D01*
X0160065Y0209890D01*
X0160999Y0209890D01*
X0161466Y0210357D01*
X0162544Y0210357D02*
X0163011Y0209890D01*
X0163945Y0209890D01*
X0164413Y0210357D01*
X0164413Y0212225D01*
X0163945Y0212692D01*
X0163011Y0212692D01*
X0162544Y0212225D01*
X0163450Y0204217D02*
X0163450Y0201413D01*
X0160099Y0201413D02*
X0160099Y0204217D01*
X0162589Y0193317D02*
X0164457Y0193317D01*
X0164457Y0191916D01*
X0163523Y0192383D01*
X0163056Y0192383D01*
X0162589Y0191916D01*
X0162589Y0190982D01*
X0163056Y0190515D01*
X0163990Y0190515D01*
X0164457Y0190982D01*
X0165535Y0190515D02*
X0167403Y0190515D01*
X0166469Y0190515D02*
X0166469Y0193317D01*
X0167403Y0192383D01*
X0168482Y0191916D02*
X0168949Y0191449D01*
X0170350Y0191449D01*
X0170350Y0190515D02*
X0170350Y0193317D01*
X0168949Y0193317D01*
X0168482Y0192850D01*
X0168482Y0191916D01*
X0169416Y0191449D02*
X0168482Y0190515D01*
X0173214Y0191295D02*
X0173681Y0190828D01*
X0174615Y0190828D01*
X0175082Y0191295D01*
X0175082Y0191762D01*
X0174615Y0192229D01*
X0173681Y0192229D01*
X0173214Y0191762D01*
X0173214Y0191295D01*
X0173681Y0192229D02*
X0173214Y0192696D01*
X0173214Y0193163D01*
X0173681Y0193630D01*
X0174615Y0193630D01*
X0175082Y0193163D01*
X0175082Y0192696D01*
X0174615Y0192229D01*
X0176160Y0190828D02*
X0178028Y0190828D01*
X0177094Y0190828D02*
X0177094Y0193630D01*
X0178028Y0192696D01*
X0179107Y0193163D02*
X0179107Y0192229D01*
X0179574Y0191762D01*
X0180975Y0191762D01*
X0180041Y0191762D02*
X0179107Y0190828D01*
X0180975Y0190828D02*
X0180975Y0193630D01*
X0179574Y0193630D01*
X0179107Y0193163D01*
X0179595Y0206452D02*
X0180529Y0206452D01*
X0180062Y0206452D02*
X0180062Y0209254D01*
X0180529Y0209254D02*
X0179595Y0209254D01*
X0178564Y0208787D02*
X0178097Y0209254D01*
X0177163Y0209254D01*
X0176696Y0208787D01*
X0175618Y0208320D02*
X0174684Y0209254D01*
X0174684Y0206452D01*
X0175618Y0206452D02*
X0173750Y0206452D01*
X0176696Y0206919D02*
X0177163Y0206452D01*
X0178097Y0206452D01*
X0178564Y0206919D01*
X0178564Y0208787D01*
X0197898Y0207364D02*
X0200702Y0207364D01*
X0201466Y0205817D02*
X0199598Y0205817D01*
X0199598Y0205350D01*
X0201466Y0203482D01*
X0201466Y0203015D01*
X0202544Y0203482D02*
X0203011Y0203015D01*
X0203945Y0203015D01*
X0204412Y0203482D01*
X0204412Y0205350D01*
X0203945Y0205817D01*
X0203011Y0205817D01*
X0202544Y0205350D01*
X0200702Y0210715D02*
X0197898Y0210715D01*
X0204598Y0217232D02*
X0204598Y0217699D01*
X0205065Y0218166D01*
X0206466Y0218166D01*
X0206466Y0217232D01*
X0205999Y0216765D01*
X0205065Y0216765D01*
X0204598Y0217232D01*
X0205532Y0219100D02*
X0206466Y0218166D01*
X0205532Y0219100D02*
X0204598Y0219567D01*
X0205702Y0221114D02*
X0202898Y0221114D01*
X0202898Y0224465D02*
X0205702Y0224465D01*
X0208011Y0219567D02*
X0207544Y0219100D01*
X0208011Y0219567D02*
X0208945Y0219567D01*
X0209412Y0219100D01*
X0209412Y0217232D01*
X0208945Y0216765D01*
X0208011Y0216765D01*
X0207544Y0217232D01*
X0221778Y0240203D02*
X0221778Y0240670D01*
X0219910Y0242538D01*
X0219910Y0243005D01*
X0221778Y0243005D01*
X0222857Y0242538D02*
X0222857Y0241604D01*
X0223324Y0241137D01*
X0224725Y0241137D01*
X0223791Y0241137D02*
X0222857Y0240203D01*
X0224725Y0240203D02*
X0224725Y0243005D01*
X0223324Y0243005D01*
X0222857Y0242538D01*
X0222544Y0250828D02*
X0223478Y0251762D01*
X0223011Y0251762D02*
X0224412Y0251762D01*
X0224412Y0250828D02*
X0224412Y0253630D01*
X0223011Y0253630D01*
X0222544Y0253163D01*
X0222544Y0252229D01*
X0223011Y0251762D01*
X0221466Y0251762D02*
X0220999Y0252229D01*
X0220065Y0252229D01*
X0219598Y0251762D01*
X0219598Y0251295D01*
X0220065Y0250828D01*
X0220999Y0250828D01*
X0221466Y0251295D01*
X0221466Y0251762D01*
X0220999Y0252229D02*
X0221466Y0252696D01*
X0221466Y0253163D01*
X0220999Y0253630D01*
X0220065Y0253630D01*
X0219598Y0253163D01*
X0219598Y0252696D01*
X0220065Y0252229D01*
X0220065Y0260515D02*
X0220999Y0260515D01*
X0221466Y0260982D01*
X0221466Y0261916D02*
X0220532Y0262383D01*
X0220065Y0262383D01*
X0219598Y0261916D01*
X0219598Y0260982D01*
X0220065Y0260515D01*
X0221466Y0261916D02*
X0221466Y0263317D01*
X0219598Y0263317D01*
X0222544Y0262850D02*
X0222544Y0261916D01*
X0223011Y0261449D01*
X0224412Y0261449D01*
X0223478Y0261449D02*
X0222544Y0260515D01*
X0224412Y0260515D02*
X0224412Y0263317D01*
X0223011Y0263317D01*
X0222544Y0262850D01*
X0199100Y0249880D02*
X0199100Y0247078D01*
X0199100Y0248012D02*
X0197699Y0248012D01*
X0197232Y0248479D01*
X0197232Y0249413D01*
X0197699Y0249880D01*
X0199100Y0249880D01*
X0198166Y0248012D02*
X0197232Y0247078D01*
X0196153Y0247545D02*
X0195686Y0247078D01*
X0194752Y0247078D01*
X0194285Y0247545D01*
X0194285Y0248012D01*
X0194752Y0248479D01*
X0196153Y0248479D01*
X0196153Y0247545D01*
X0196153Y0248479D02*
X0195219Y0249413D01*
X0194285Y0249880D01*
X0191600Y0249725D02*
X0191600Y0247857D01*
X0191133Y0247390D01*
X0190199Y0247390D01*
X0189732Y0247857D01*
X0188653Y0247390D02*
X0186785Y0247390D01*
X0186785Y0249258D02*
X0186785Y0249725D01*
X0187252Y0250192D01*
X0188186Y0250192D01*
X0188653Y0249725D01*
X0189732Y0249725D02*
X0190199Y0250192D01*
X0191133Y0250192D01*
X0191600Y0249725D01*
X0188653Y0247390D02*
X0186785Y0249258D01*
X0187650Y0256413D02*
X0187650Y0259217D01*
X0191001Y0259217D02*
X0191001Y0256413D01*
X0173501Y0256717D02*
X0173501Y0253913D01*
X0170150Y0253913D02*
X0170150Y0256717D01*
X0170065Y0262390D02*
X0170999Y0262390D01*
X0171466Y0262857D01*
X0172544Y0262857D02*
X0173011Y0262390D01*
X0173945Y0262390D01*
X0174412Y0262857D01*
X0174412Y0264725D01*
X0173945Y0265192D01*
X0173011Y0265192D01*
X0172544Y0264725D01*
X0171466Y0264725D02*
X0170999Y0265192D01*
X0170065Y0265192D01*
X0169598Y0264725D01*
X0169598Y0264258D01*
X0170065Y0263791D01*
X0169598Y0263324D01*
X0169598Y0262857D01*
X0170065Y0262390D01*
X0170065Y0263791D02*
X0170532Y0263791D01*
X0153945Y0246755D02*
X0154413Y0246288D01*
X0154413Y0244420D01*
X0153945Y0243953D01*
X0153011Y0243953D01*
X0152544Y0244420D01*
X0151466Y0245354D02*
X0149598Y0245354D01*
X0150065Y0246755D02*
X0151466Y0245354D01*
X0152544Y0246288D02*
X0153011Y0246755D01*
X0153945Y0246755D01*
X0150065Y0246755D02*
X0150065Y0243953D01*
X0150702Y0242016D02*
X0147898Y0242016D01*
X0147898Y0238665D02*
X0150702Y0238665D01*
X0151782Y0193317D02*
X0151782Y0190515D01*
X0152716Y0190515D02*
X0150848Y0190515D01*
X0149769Y0190982D02*
X0149302Y0190515D01*
X0148368Y0190515D01*
X0147901Y0190982D01*
X0147901Y0192850D01*
X0148368Y0193317D01*
X0149302Y0193317D01*
X0149769Y0192850D01*
X0149769Y0192383D01*
X0149302Y0191916D01*
X0147901Y0191916D01*
X0145038Y0191449D02*
X0143636Y0191449D01*
X0143169Y0191916D01*
X0143169Y0192850D01*
X0143636Y0193317D01*
X0145038Y0193317D01*
X0145038Y0190515D01*
X0144103Y0191449D02*
X0143169Y0190515D01*
X0142091Y0190515D02*
X0140223Y0192383D01*
X0140223Y0192850D01*
X0140690Y0193317D01*
X0141624Y0193317D01*
X0142091Y0192850D01*
X0142091Y0190515D02*
X0140223Y0190515D01*
X0139144Y0190982D02*
X0137276Y0192850D01*
X0137276Y0190982D01*
X0137743Y0190515D01*
X0138677Y0190515D01*
X0139144Y0190982D01*
X0139144Y0192850D01*
X0138677Y0193317D01*
X0137743Y0193317D01*
X0137276Y0192850D01*
X0151782Y0193317D02*
X0152716Y0192383D01*
X0153794Y0191916D02*
X0154261Y0191449D01*
X0155663Y0191449D01*
X0155663Y0190515D02*
X0155663Y0193317D01*
X0154261Y0193317D01*
X0153794Y0192850D01*
X0153794Y0191916D01*
X0154728Y0191449D02*
X0153794Y0190515D01*
X0096690Y0147617D02*
X0096690Y0144815D01*
X0096690Y0145749D02*
X0095288Y0145749D01*
X0094821Y0146216D01*
X0094821Y0147150D01*
X0095288Y0147617D01*
X0096690Y0147617D01*
X0095755Y0145749D02*
X0094821Y0144815D01*
X0093743Y0144815D02*
X0091875Y0144815D01*
X0092809Y0144815D02*
X0092809Y0147617D01*
X0093743Y0146683D01*
X0090797Y0146216D02*
X0089395Y0146216D01*
X0088928Y0145749D01*
X0088928Y0145282D01*
X0089395Y0144815D01*
X0090329Y0144815D01*
X0090797Y0145282D01*
X0090797Y0146216D01*
X0089862Y0147150D01*
X0088928Y0147617D01*
X0084368Y0138867D02*
X0082967Y0138867D01*
X0082500Y0138400D01*
X0082500Y0137466D01*
X0082967Y0136999D01*
X0084368Y0136999D01*
X0084368Y0136065D02*
X0084368Y0138867D01*
X0083434Y0136999D02*
X0082500Y0136065D01*
X0081422Y0136065D02*
X0079553Y0137933D01*
X0079553Y0138400D01*
X0080020Y0138867D01*
X0080954Y0138867D01*
X0081422Y0138400D01*
X0081422Y0136065D02*
X0079553Y0136065D01*
X0079285Y0176765D02*
X0081153Y0176765D01*
X0080219Y0176765D02*
X0080219Y0179567D01*
X0081153Y0178633D01*
X0082232Y0178166D02*
X0082699Y0177699D01*
X0084100Y0177699D01*
X0084100Y0176765D02*
X0084100Y0179567D01*
X0082699Y0179567D01*
X0082232Y0179100D01*
X0082232Y0178166D01*
X0083166Y0177699D02*
X0082232Y0176765D01*
X0038966Y0054617D02*
X0038032Y0054617D01*
X0038499Y0054617D02*
X0038499Y0052282D01*
X0038966Y0051815D01*
X0039433Y0051815D01*
X0039900Y0052282D01*
X0036953Y0051815D02*
X0035085Y0051815D01*
X0036019Y0051815D02*
X0036019Y0054617D01*
X0036953Y0053683D01*
D14*
X0096794Y0129936D03*
X0096794Y0135736D03*
X0104294Y0135736D03*
X0104294Y0129936D03*
X0081794Y0144936D03*
X0081794Y0150736D03*
X0081806Y0164895D03*
X0081806Y0170695D03*
X0141794Y0179936D03*
X0141794Y0185736D03*
X0151806Y0185695D03*
X0151806Y0179895D03*
X0166794Y0179936D03*
X0166794Y0185736D03*
X0176794Y0185736D03*
X0176794Y0179936D03*
X0141794Y0204936D03*
X0141794Y0210736D03*
X0196794Y0254936D03*
X0196794Y0260736D03*
D15*
X0208920Y0262821D03*
X0214720Y0262821D03*
X0214720Y0252821D03*
X0208920Y0252821D03*
X0208880Y0242809D03*
X0214680Y0242809D03*
X0129720Y0127821D03*
X0123920Y0127821D03*
X0123920Y0119696D03*
X0129720Y0119696D03*
X0129720Y0110946D03*
X0123920Y0110946D03*
X0123920Y0102821D03*
X0129720Y0102821D03*
X0129720Y0092821D03*
X0123920Y0092821D03*
X0123920Y0082821D03*
X0129720Y0082821D03*
X0104720Y0080321D03*
X0098920Y0080321D03*
X0098920Y0071571D03*
X0104720Y0071571D03*
X0097180Y0152809D03*
X0091380Y0152809D03*
X0206380Y0040934D03*
X0212180Y0040934D03*
X0212180Y0032809D03*
X0206380Y0032809D03*
D16*
X0176800Y0211112D02*
X0193503Y0227815D01*
X0176800Y0244518D01*
X0160097Y0227815D01*
X0176800Y0211112D01*
X0178192Y0243126D02*
X0175408Y0243126D01*
D17*
X0177422Y0247400D02*
X0177424Y0247444D01*
X0177430Y0247488D01*
X0177440Y0247531D01*
X0177453Y0247573D01*
X0177471Y0247613D01*
X0177492Y0247652D01*
X0177516Y0247689D01*
X0177543Y0247724D01*
X0177574Y0247756D01*
X0177607Y0247785D01*
X0177643Y0247811D01*
X0177681Y0247833D01*
X0177721Y0247852D01*
X0177762Y0247868D01*
X0177805Y0247880D01*
X0177848Y0247888D01*
X0177892Y0247892D01*
X0177936Y0247892D01*
X0177980Y0247888D01*
X0178023Y0247880D01*
X0178066Y0247868D01*
X0178107Y0247852D01*
X0178147Y0247833D01*
X0178185Y0247811D01*
X0178221Y0247785D01*
X0178254Y0247756D01*
X0178285Y0247724D01*
X0178312Y0247689D01*
X0178336Y0247652D01*
X0178357Y0247613D01*
X0178375Y0247573D01*
X0178388Y0247531D01*
X0178398Y0247488D01*
X0178404Y0247444D01*
X0178406Y0247400D01*
X0178404Y0247356D01*
X0178398Y0247312D01*
X0178388Y0247269D01*
X0178375Y0247227D01*
X0178357Y0247187D01*
X0178336Y0247148D01*
X0178312Y0247111D01*
X0178285Y0247076D01*
X0178254Y0247044D01*
X0178221Y0247015D01*
X0178185Y0246989D01*
X0178147Y0246967D01*
X0178107Y0246948D01*
X0178066Y0246932D01*
X0178023Y0246920D01*
X0177980Y0246912D01*
X0177936Y0246908D01*
X0177892Y0246908D01*
X0177848Y0246912D01*
X0177805Y0246920D01*
X0177762Y0246932D01*
X0177721Y0246948D01*
X0177681Y0246967D01*
X0177643Y0246989D01*
X0177607Y0247015D01*
X0177574Y0247044D01*
X0177543Y0247076D01*
X0177516Y0247111D01*
X0177492Y0247148D01*
X0177471Y0247187D01*
X0177453Y0247227D01*
X0177440Y0247269D01*
X0177430Y0247312D01*
X0177424Y0247356D01*
X0177422Y0247400D01*
D18*
X0171820Y0253000D03*
X0171820Y0257600D03*
X0189320Y0255500D03*
X0189320Y0260100D03*
X0161780Y0205131D03*
X0161780Y0200531D03*
D19*
X0196984Y0209045D03*
X0201584Y0209045D03*
X0201984Y0222795D03*
X0206584Y0222795D03*
X0151616Y0240335D03*
X0147016Y0240335D03*
M02*
