G75*
%MOIN*%
%OFA0B0*%
%FSLAX25Y25*%
%IPPOS*%
%LPD*%
%AMOC8*
5,1,8,0,0,1.08239X$1,22.5*
%
%ADD10C,0.05450*%
%ADD11R,0.06106X0.05318*%
%ADD12R,0.05318X0.06106*%
%ADD13R,0.04531X0.04137*%
%ADD14R,0.10436X0.01381*%
%ADD15C,0.06696*%
%ADD16C,0.05515*%
%ADD17R,0.05712X0.07287*%
%ADD18R,0.03700X0.03300*%
%ADD19R,0.03300X0.03700*%
%ADD20C,0.01302*%
%ADD21C,0.01162*%
%ADD22R,0.04137X0.04531*%
%ADD23R,0.03350X0.03350*%
D10*
X0055500Y0052915D03*
D11*
X0125550Y0059075D03*
X0125550Y0066555D03*
X0134300Y0066555D03*
X0134300Y0059075D03*
X0179300Y0021555D03*
X0179300Y0014075D03*
X0214300Y0014075D03*
X0214300Y0021555D03*
X0206800Y0114075D03*
X0206800Y0121555D03*
X0196800Y0121555D03*
X0196800Y0114075D03*
X0186800Y0114075D03*
X0186800Y0121555D03*
X0216800Y0169075D03*
X0216800Y0176555D03*
X0226800Y0176555D03*
X0226800Y0169075D03*
X0116800Y0226575D03*
X0116800Y0234055D03*
X0106800Y0234055D03*
X0106800Y0226575D03*
X0081800Y0171555D03*
X0081800Y0164075D03*
X0081800Y0151555D03*
X0081800Y0144075D03*
D12*
X0090560Y0162815D03*
X0098040Y0162815D03*
X0183060Y0170315D03*
X0190540Y0170315D03*
X0253060Y0167815D03*
X0260540Y0167815D03*
X0258060Y0122815D03*
X0265540Y0122815D03*
X0205540Y0102815D03*
X0198060Y0102815D03*
X0155540Y0047815D03*
X0148060Y0047815D03*
X0198060Y0027815D03*
X0205540Y0027815D03*
X0220560Y0032815D03*
X0228040Y0032815D03*
X0253060Y0027815D03*
X0260540Y0027815D03*
X0258060Y0262815D03*
X0265540Y0262815D03*
D13*
X0260146Y0157815D03*
X0253454Y0157815D03*
X0205146Y0095315D03*
X0198454Y0095315D03*
X0195954Y0077815D03*
X0202646Y0077815D03*
X0150146Y0067815D03*
X0143454Y0067815D03*
X0145146Y0137815D03*
X0138454Y0137815D03*
X0138454Y0145315D03*
X0145146Y0145315D03*
X0145146Y0152815D03*
X0138454Y0152815D03*
X0253454Y0017815D03*
X0260146Y0017815D03*
D14*
X0242115Y0050099D03*
X0242115Y0052067D03*
X0242115Y0054036D03*
X0242115Y0056004D03*
X0242115Y0057973D03*
X0242115Y0059941D03*
X0242115Y0061910D03*
X0242115Y0063878D03*
X0242115Y0065847D03*
X0242115Y0067815D03*
X0242115Y0069784D03*
X0242115Y0071752D03*
X0242115Y0073721D03*
X0242115Y0075689D03*
X0242115Y0077658D03*
X0242115Y0079626D03*
X0242115Y0081595D03*
X0242115Y0083563D03*
X0242115Y0085532D03*
X0242115Y0190099D03*
X0242115Y0192067D03*
X0242115Y0194036D03*
X0242115Y0196004D03*
X0242115Y0197973D03*
X0242115Y0199941D03*
X0242115Y0201910D03*
X0242115Y0203878D03*
X0242115Y0205847D03*
X0242115Y0207815D03*
X0242115Y0209784D03*
X0242115Y0211752D03*
X0242115Y0213721D03*
X0242115Y0215689D03*
X0242115Y0217658D03*
X0242115Y0219626D03*
X0242115Y0221595D03*
X0242115Y0223563D03*
X0242115Y0225532D03*
D15*
X0241859Y0236358D02*
X0248355Y0236358D01*
X0248355Y0179272D02*
X0241859Y0179272D01*
X0241859Y0096358D02*
X0248355Y0096358D01*
X0248355Y0039272D02*
X0241859Y0039272D01*
D16*
X0265914Y0039272D02*
X0271229Y0039272D01*
X0271229Y0096358D02*
X0265914Y0096358D01*
X0265914Y0179272D02*
X0271229Y0179272D01*
X0271229Y0236358D02*
X0265914Y0236358D01*
D17*
X0268493Y0252815D03*
X0255107Y0252815D03*
X0255107Y0112815D03*
X0268493Y0112815D03*
D18*
X0205800Y0170790D03*
X0205800Y0178390D03*
X0197800Y0174590D03*
X0187800Y0021715D03*
X0187800Y0014115D03*
X0195800Y0017915D03*
D19*
X0222900Y0013815D03*
X0230500Y0013815D03*
X0226700Y0021815D03*
D20*
X0177395Y0070260D02*
X0175809Y0071846D01*
X0174417Y0070454D02*
X0176003Y0068868D01*
X0174611Y0067476D02*
X0173025Y0069062D01*
X0170575Y0069062D02*
X0168989Y0067476D01*
X0167597Y0068868D02*
X0169183Y0070454D01*
X0167791Y0071846D02*
X0166205Y0070260D01*
X0164813Y0071652D02*
X0166399Y0073238D01*
X0165007Y0074630D02*
X0163421Y0073044D01*
X0162029Y0074436D02*
X0163615Y0076022D01*
X0162223Y0077414D02*
X0160637Y0075828D01*
X0159245Y0077220D02*
X0160831Y0078806D01*
X0159439Y0080198D02*
X0157853Y0078612D01*
X0156461Y0080004D02*
X0158047Y0081590D01*
X0158047Y0084040D02*
X0156461Y0085626D01*
X0157853Y0087018D02*
X0159439Y0085432D01*
X0160831Y0086824D02*
X0159245Y0088410D01*
X0160637Y0089802D02*
X0162223Y0088216D01*
X0163615Y0089608D02*
X0162029Y0091194D01*
X0163421Y0092586D02*
X0165007Y0091000D01*
X0166399Y0092392D02*
X0164813Y0093978D01*
X0166205Y0095370D02*
X0167791Y0093784D01*
X0169183Y0095176D02*
X0167597Y0096762D01*
X0168989Y0098154D02*
X0170575Y0096568D01*
X0173025Y0096568D02*
X0174611Y0098154D01*
X0176003Y0096762D02*
X0174417Y0095176D01*
X0175809Y0093784D02*
X0177395Y0095370D01*
X0178787Y0093978D02*
X0177201Y0092392D01*
X0178593Y0091000D02*
X0180179Y0092586D01*
X0181571Y0091194D02*
X0179985Y0089608D01*
X0181377Y0088216D02*
X0182963Y0089802D01*
X0184355Y0088410D02*
X0182769Y0086824D01*
X0184161Y0085432D02*
X0185747Y0087018D01*
X0187139Y0085626D02*
X0185553Y0084040D01*
X0185553Y0081590D02*
X0187139Y0080004D01*
X0185747Y0078612D02*
X0184161Y0080198D01*
X0182769Y0078806D02*
X0184355Y0077220D01*
X0182963Y0075828D02*
X0181377Y0077414D01*
X0179985Y0076022D02*
X0181571Y0074436D01*
X0180179Y0073044D02*
X0178593Y0074630D01*
X0177201Y0073238D02*
X0178787Y0071652D01*
D21*
X0171800Y0075423D02*
X0164408Y0082815D01*
X0171800Y0090207D01*
X0179192Y0082815D01*
X0171800Y0075423D01*
X0172961Y0076584D02*
X0170639Y0076584D01*
X0169478Y0077745D02*
X0174122Y0077745D01*
X0175283Y0078906D02*
X0168317Y0078906D01*
X0167156Y0080067D02*
X0176444Y0080067D01*
X0177605Y0081228D02*
X0165995Y0081228D01*
X0164834Y0082389D02*
X0178766Y0082389D01*
X0178457Y0083550D02*
X0165143Y0083550D01*
X0166304Y0084711D02*
X0177296Y0084711D01*
X0176135Y0085872D02*
X0167465Y0085872D01*
X0168626Y0087033D02*
X0174974Y0087033D01*
X0173813Y0088194D02*
X0169787Y0088194D01*
X0170948Y0089355D02*
X0172652Y0089355D01*
D22*
X0166800Y0106969D03*
X0166800Y0113662D03*
X0153050Y0108662D03*
X0153050Y0101969D03*
X0184300Y0058662D03*
X0184300Y0051969D03*
D23*
X0201800Y0020768D03*
X0201800Y0014862D03*
M02*
