%
M48
M71
T01C0.400
T02C0.500
T03C0.600
T04C0.889
T05C0.900
%
T01
X22047Y18178
X22047Y20400
X23952Y23416
X23952Y24369
X22047Y25004
X22047Y25956
X22523Y27544
X22523Y28496
X29191Y22781
X29191Y21829
X30302Y16908
X34112Y18495
X36335Y15955
X38240Y15955
X40145Y13971
X42843Y15003
X41097Y16511
X37922Y10240
X34112Y13415
X27127Y9605
X37605Y25798
X37605Y27703
X43637Y27068
X43637Y28973
X47447Y32465
X49987Y32465
X52527Y32465
X53797Y26115
X52210Y22940
X50305Y22940
X49670Y18495
X51575Y18495
X48082Y15003
X48082Y13098
X49670Y10399
X48717Y9605
X55702Y10399
X65227Y16273
X66497Y17225
X66497Y19765
X65227Y26115
X66497Y12780
X67767Y7065
X38557Y35005
X38557Y36910
X38557Y38815
X32207Y34685
X25857Y40085
X30937Y43895
X34112Y45800
X39827Y50563
X39827Y52468
X37684Y54214
X40383Y55325
X38557Y57071
X38875Y62310
X36970Y62310
X42367Y63898
X42367Y65803
X46812Y66438
X46812Y64533
X49987Y68025
X56337Y66755
X56337Y64215
X56337Y61675
X52845Y57865
X50940Y57865
X53559Y55404
X53559Y54452
X51575Y51833
X49670Y51833
X57925Y53261
X57925Y54214
X58877Y52626
X58877Y51674
X58877Y56436
X58877Y57389
X65227Y61675
X66497Y55325
X66497Y52785
X65227Y51833
X66497Y48340
X67767Y42625
X57607Y41355
X34112Y52150
X29667Y55087
X27127Y55960
T02
X38557Y43895
X42685Y50563
X44272Y50880
X48717Y47705
X53162Y47070
X44907Y56451
X44907Y57865
X43493Y57865
X44907Y59279
X46321Y57865
X43637Y22449
X43637Y21035
X42223Y21035
X43637Y19621
X45051Y21035
T03
X10617Y4525
X19507Y4525
X24587Y9605
X27127Y4525
X32207Y7065
X36017Y3255
X42367Y3255
X43637Y7065
X41732Y10240
X36017Y13415
X34747Y12145
X28397Y15955
X18237Y15955
X13951Y15955
X14110Y23099
X14110Y30401
X19507Y33735
X14110Y37545
X8871Y38339
X8553Y39926
X8553Y41514
X14110Y48816
X14110Y55960
X19507Y61675
X13951Y63104
X9347Y68025
X20777Y68025
X22047Y47705
X23317Y43895
X28397Y43895
X30937Y38815
X51257Y41355
X60147Y43895
X67767Y38815
X67767Y33735
X61417Y28655
X58877Y23575
X55067Y29925
X59512Y10240
X60147Y5795
X48082Y7700
X62687Y64215
X60147Y68025
T04
X14097Y13440
T05
X62257Y9975
X68217Y9975
X68217Y24475
X62257Y24475
X62257Y45535
X68217Y45535
X68217Y60035
X62257Y60035
M30
